<?xml version="1.0" encoding="UTF-8"?>
<svg version="1.1" xmlns="http://www.w3.org/2000/svg" width="603" height="163">
<path d="M0 0 C3.21816915 2.61476243 5.70575082 4.81414892 6.2734375 9.03125 C6.69554216 19.2916403 2.45867948 25.76957644 -4.3125 33.1875 C-8.04882562 37.16491939 -11.93956872 40.92585522 -16.1484375 44.40234375 C-16.75945312 44.92957031 -17.37046875 45.45679688 -18 46 C-18.87567627 46.61367432 -19.75135254 47.22734863 -20.65356445 47.85961914 C-24.29199096 52.72915198 -23.10132034 57.0158797 -22.39453125 62.84375 C-22.27647629 64.00442993 -22.15842133 65.16510986 -22.03678894 66.36096191 C-21.65416282 70.07718012 -21.23485309 73.78810591 -20.8125 77.5 C-20.41508733 81.18373761 -20.02545089 84.86815233 -19.64176941 88.55334473 C-19.40092975 90.84400188 -19.15112713 93.13374198 -18.89057922 95.42224121 C-16.67126696 115.73627879 -16.67126696 115.73627879 -19.52839661 120.60388184 C-22.28641648 123.94185174 -24.98277325 126.31799043 -29 128 C-31.5 128.1875 -31.5 128.1875 -34 127 C-34.9977417 125.23072815 -34.9977417 125.23072815 -35.94042969 122.98657227 C-36.28440796 122.17213654 -36.62838623 121.35770081 -36.98278809 120.51858521 C-38.52269804 116.70581584 -40.01148919 112.87832319 -41.453125 109.02734375 C-41.75820984 108.21882462 -42.06329468 107.41030548 -42.37762451 106.57728577 C-43.33756147 104.03161593 -44.29384443 101.4845922 -45.25 98.9375 C-45.90600724 97.19587208 -46.56225514 95.45433479 -47.21875 93.71289062 C-48.81527952 89.47630131 -50.4085369 85.23849496 -52 81 C-58.06307732 81 -62.60272868 87.06609109 -66.79418945 91.03271484 C-70.95139509 95.41981789 -73.53261784 98.63535038 -73.71484375 104.8125 C-73.55959435 107.7431985 -73.21078738 110.50422607 -72.65527344 113.38525391 C-71.43149785 120.04980334 -71.43149785 120.04980334 -73.40869141 123.35449219 C-75.17801336 125.3827059 -76.99466726 127.2075764 -79 129 C-79.66 129.66 -80.32 130.32 -81 131 C-83.875 131.4375 -83.875 131.4375 -87 131 C-90.29894213 127.60027553 -92.18432209 123.76235204 -94.24609375 119.56542969 C-99.28180456 109.51464622 -103.76251161 104.93147306 -114 100 C-115.92814273 98.87358501 -117.84605341 97.72934726 -119.75 96.5625 C-120.94882813 95.85287109 -120.94882813 95.85287109 -122.171875 95.12890625 C-124 94 -124 94 -125 93 C-125.5184398 89.88936121 -125.5229155 87.82099437 -123.80078125 85.1171875 C-121.14754969 81.9226165 -118.90258278 79.56987377 -115 78 C-112.82788086 78.07446289 -112.82788086 78.07446289 -110.46484375 78.47265625 C-99.86407494 79.77259641 -99.86407494 79.77259641 -90.11083984 76.14404297 C-84.09819998 71.03746063 -78.91992561 65.15119855 -74 59 C-76.50405689 57.33062874 -78.37801378 56.38316931 -81.1484375 55.36767578 C-81.97939941 55.06040558 -82.81036133 54.75313538 -83.66650391 54.43655396 C-85.00720947 53.94588943 -85.00720947 53.94588943 -86.375 53.4453125 C-88.26581833 52.74140451 -90.15643733 52.03696091 -92.046875 51.33203125 C-95.02726648 50.22495844 -98.00889084 49.12174206 -100.99414062 48.02783203 C-103.87542205 46.9699358 -106.75047373 45.89640512 -109.625 44.8203125 C-110.51880371 44.49725128 -111.41260742 44.17419006 -112.33349609 43.84133911 C-113.16445801 43.52776459 -113.99541992 43.21419006 -114.8515625 42.89111328 C-115.58197754 42.62178986 -116.31239258 42.35246643 -117.06494141 42.07498169 C-119.46315444 40.74270415 -120.58499481 39.33378661 -122 37 C-121.84938865 32.83526872 -120.29282851 30.67796896 -117.4375 27.75 C-116.79683594 27.06421875 -116.15617187 26.3784375 -115.49609375 25.671875 C-109.13056497 21.40826574 -100.58261401 23.20736409 -93.37890625 23.99609375 C-92.2795726 24.10848892 -91.18023895 24.22088409 -90.04759216 24.33668518 C-86.5516245 24.6951748 -83.05705406 25.06550297 -79.5625 25.4375 C-76.07138902 25.80438868 -72.5800515 26.16861023 -69.08811951 26.52760315 C-66.92163924 26.75079391 -64.75563473 26.97867028 -62.59022522 27.21202087 C-59.72855468 27.50933974 -56.86756715 27.76706694 -54 28 C-53.16383148 28.07922195 -52.32766296 28.15844391 -51.46615601 28.24006653 C-47.30897101 28.4769208 -45.54820218 28.37252504 -42.00976562 25.96801758 C-41.15060547 25.03626709 -40.29144531 24.1045166 -39.40625 23.14453125 C-38.92982056 22.64588058 -38.45339111 22.14722992 -37.96252441 21.63346863 C-36.45185421 20.04650679 -34.97486846 18.43272693 -33.5 16.8125 C-14.40059337 -3.82475653 -14.40059337 -3.82475653 0 0 Z " fill="#FFFFFF" transform="translate(139,18)"/>
<path d="M0 0 C48.28453039 0 48.28453039 0 57.55859375 8.4140625 C63.67973861 15.20726184 64.62738298 21.60641295 64.41015625 30.484375 C63.70149933 36.55857718 61.67937913 41.55866488 57.109375 45.72265625 C55.1875 47.125 55.1875 47.125 52 49 C56.05305 55.47995229 60.21559828 61.82362401 64.71484375 68.00390625 C66 70 66 70 66 72 C58.46376509 73.12066533 50.39636202 74.25513092 43 72 C39.21632339 68.85497782 37.05009853 64.89892137 34.97949219 60.49072266 C33.79876223 58.04714612 32.80989682 56.02809149 31 54 C27.46567187 52.90327987 24.76347194 52.94655052 21 53 C21 59.27 21 65.54 21 72 C14.07 72 7.14 72 0 72 C0 48.24 0 24.48 0 0 Z M21 17 C21 23.6 21 30.2 21 37 C31.47489791 37.55510967 31.47489791 37.55510967 41 34 C43.4486325 30.32705125 43.83183438 27.26731035 43 23 C40.46546343 19.78045355 38.88702695 18.29567565 35 17 C30.33032246 16.86409553 25.67262015 16.95713193 21 17 Z " fill="#FFFFFF" transform="translate(410,48)"/>
<path d="M0 0 C1.23896961 1.04815784 2.4480378 2.13266364 3.625 3.25 C4.25148438 3.83652344 4.87796875 4.42304687 5.5234375 5.02734375 C12.53712684 12.26298528 14.98669157 20.27069542 15.125 30.25 C14.94342012 41.47374179 11.80682084 49.04278672 3.9765625 57.08984375 C-5.21408488 65.53241518 -15.62561548 67.85424152 -27.953125 67.53125 C-37.92503829 66.71164069 -47.23465959 63.39034041 -54.4140625 56.2109375 C-61.68977036 47.44912761 -64.98882447 37.61335838 -64.15625 26.26953125 C-62.90358427 16.76613454 -59.18875683 9.06375683 -52.375 2.25 C-37.39942215 -8.83899413 -15.75782239 -11.09108268 0 0 Z M-37.25 15.5625 C-42.02220939 21.59794129 -43.03897442 26.33439902 -42.85546875 33.98046875 C-42.10074753 39.11625459 -39.97730578 42.57350486 -36.375 46.25 C-31.72016274 49.4192509 -26.81326523 50.76909866 -21.17578125 49.91796875 C-14.76730299 48.2315271 -11.05121039 44.67678676 -7.375 39.25 C-5.54264243 33.7529273 -5.1977373 27.28352755 -7.31640625 21.82421875 C-10.61893687 16.32690289 -14.37421323 12.62479408 -20.625 10.8125 C-27.11658629 9.60073723 -32.18833807 11.49116323 -37.25 15.5625 Z " fill="#FFFFFF" transform="translate(307.375,53.75)"/>
<path d="M0 0 C6.93 0 13.86 0 21 0 C21.03738281 3.16722656 21.07476562 6.33445313 21.11328125 9.59765625 C21.15954663 12.67902369 21.21076213 15.76027207 21.26245117 18.84155273 C21.29562117 20.97624422 21.32367758 23.11102173 21.34643555 25.24584961 C21.38012717 28.32182331 21.43245103 31.39701426 21.48828125 34.47265625 C21.49467117 35.42084732 21.5010611 36.36903839 21.50764465 37.34596252 C21.63103604 42.95884247 22.24562795 47.06357713 25 52 C29.40392596 54.93595064 32.49130493 55.28128213 37.6875 54.3125 C41.13693767 52.94574168 42.2566637 52.19611655 44 49 C44.93789698 46.18630906 45.14931982 44.356895 45.20532227 41.43676758 C45.22526749 40.51603958 45.24521271 39.59531158 45.26576233 38.64668274 C45.28247482 37.65597275 45.29918732 36.66526276 45.31640625 35.64453125 C45.33718735 34.62775803 45.35796844 33.6109848 45.37937927 32.56340027 C45.44480048 29.31316937 45.50372537 26.06285723 45.5625 22.8125 C45.60569227 20.61001762 45.64930679 18.40754347 45.69335938 16.20507812 C45.80126943 10.80346751 45.90039843 5.40179583 46 0 C52.93 0 59.86 0 67 0 C67.06928428 6.18939584 67.12889309 12.3774183 67.16479492 18.56689453 C67.17977873 20.66752714 67.20017281 22.76812901 67.22631836 24.86865234 C67.57959045 54.00320937 67.57959045 54.00320937 59.796875 63.25 C51.99710417 70.84629855 44.27605049 73.04515436 33.625 73.3125 C23.91972772 73.16764519 15.53547433 71.45387029 8.41015625 64.43359375 C2.4898709 57.96325744 -0.13723948 50.91584819 -0.11352539 42.11791992 C-0.11344986 41.17732224 -0.11337433 40.23672455 -0.11329651 39.2676239 C-0.10813522 38.2653627 -0.10297394 37.2631015 -0.09765625 36.23046875 C-0.0962413 35.19432938 -0.09482635 34.15819 -0.09336853 33.09065247 C-0.08778242 29.78957196 -0.07523242 26.48855992 -0.0625 23.1875 C-0.05748321 20.94596452 -0.05292061 18.70442798 -0.04882812 16.46289062 C-0.03866952 10.97521299 -0.01909128 5.4876829 0 0 Z " fill="#FFFFFF" transform="translate(331,48)"/>
<path d="M0 0 C7.26697308 -1.69817264 14.94997748 -2.97625658 22 0 C29.27161299 7.10307467 33.72915771 16.89582332 38 26 C41.09721474 21.62231819 43.96907515 17.3519013 46.0703125 12.40234375 C50.18327415 3.1738232 50.18327415 3.1738232 54 0 C60.44448787 -2.0471955 67.43174413 -1.05646619 74 0 C73.42084353 4.42028151 71.76318077 7.42041074 69.4296875 11.19140625 C69.0703714 11.77736069 68.7110553 12.36331512 68.34085083 12.96702576 C67.19254284 14.83658901 66.03421453 16.69968382 64.875 18.5625 C64.11907366 19.7866663 63.36385899 21.01127235 62.609375 22.23632812 C62.23838181 22.83800812 61.86738861 23.43968811 61.4851532 24.05960083 C60.73847459 25.27469754 59.99467605 26.49156866 59.2537384 27.71017456 C57.5284845 30.54480859 55.77830186 33.32741591 53.91674805 36.07666016 C48.87145132 43.818148 47.97804047 50.09856116 48.0625 59.25 C48.04638672 60.48363281 48.03027344 61.71726563 48.01367188 62.98828125 C47.97874505 65.9919879 47.98502343 68.99612763 48 72 C41.07 72 34.14 72 27 72 C27.03222656 70.30875 27.06445312 68.6175 27.09765625 66.875 C27.12960154 53.36414042 26.46221623 43.57042464 18.67236328 32.46875 C15.28349555 27.46608861 12.2337756 22.24026072 9.11425781 17.0668335 C7.94907564 15.14410161 6.77150625 13.22953404 5.58984375 11.31689453 C5.22141861 10.7173999 4.85299347 10.11790527 4.47340393 9.50024414 C3.45696692 7.84667505 2.43743298 6.19501078 1.41772461 4.54345703 C0 2 0 2 0 0 Z " fill="#FFFFFF" transform="translate(529,48)"/>
<path d="M0 0 C21.12 0 42.24 0 64 0 C64 5.61 64 11.22 64 17 C56.74 17 49.48 17 42 17 C42 35.15 42 53.3 42 72 C35.07 72 28.14 72 21 72 C21 53.85 21 35.7 21 17 C14.07 17 7.14 17 0 17 C0 11.39 0 5.78 0 0 Z " fill="#FFFFFF" transform="translate(178,48)"/>
<path d="M0 0 C6.93 0 13.86 0 21 0 C21 18.15 21 36.3 21 55 C31.89 55 42.78 55 54 55 C54 60.61 54 66.22 54 72 C36.18 72 18.36 72 0 72 C0 48.24 0 24.48 0 0 Z " fill="#FFFFFF" transform="translate(484,48)"/>
</svg>
