<?xml version="1.0" encoding="UTF-8"?>
<svg version="1.1" xmlns="http://www.w3.org/2000/svg" width="603" height="163">
<path d="M0 0 C0.716185 -0.01854538 1.43237 -0.03709076 2.17025757 -0.05619812 C4.53061317 -0.10795746 6.88837963 -0.11494409 9.24926758 -0.11694336 C10.89969431 -0.13369907 12.55011082 -0.15149189 14.20051575 -0.17027283 C17.65981675 -0.2016606 21.11821215 -0.20881411 24.57763672 -0.20117188 C28.98972376 -0.19498765 33.39670717 -0.26634754 37.80768871 -0.35860538 C41.21823178 -0.41813638 44.6275661 -0.42678559 48.0385685 -0.42156792 C49.66324427 -0.42676768 51.28796974 -0.44946961 52.91213036 -0.4907093 C65.55002288 -0.77915684 65.55002288 -0.77915684 70.88516235 3.26589966 C73.40512575 6.01555367 75.57619003 8.79893833 77.70629883 11.85571289 C78.73581613 13.05376123 79.77485311 14.24384151 80.83129883 15.41821289 C82.70629883 17.85571289 82.70629883 17.85571289 82.70629883 19.85571289 C84.19129883 20.35071289 84.19129883 20.35071289 85.70629883 20.85571289 C85.22797865 23.84521403 84.35592434 25.38658333 82.64379883 27.98071289 C79.65291286 33.10252034 79.90546816 38.73147714 81.35400391 44.38256836 C82.20953844 46.86866555 83.1475976 49.29772045 84.14379883 51.73071289 C84.7898497 53.3733452 85.43443661 55.01655421 86.07739258 56.66040039 C86.36541748 57.37180176 86.65344238 58.08320312 86.95019531 58.81616211 C89.8061729 66.5200164 90.31400515 76.89250332 87.76489258 84.76196289 C86.55948663 86.96872487 85.26818779 88.88825056 83.70629883 90.85571289 C82.94317383 91.90758789 82.18004883 92.95946289 81.39379883 94.04321289 C78.58553723 96.98209131 75.69454309 99.08871794 72.28051758 101.26586914 C70.42234834 102.80317995 70.42234834 102.80317995 70.47583008 105.53930664 C70.55188477 106.3037207 70.62793945 107.06813477 70.70629883 107.85571289 C69.79364258 107.75129883 69.79364258 107.75129883 68.86254883 107.64477539 C62.46744567 107.24978373 57.32454183 108.3342857 51.39379883 110.54321289 C50.72477539 110.78700684 50.05575195 111.03080078 49.36645508 111.28198242 C44.6919779 113.12453655 41.49100632 115.57414229 37.70629883 118.85571289 C37.04629883 118.85571289 36.38629883 118.85571289 35.70629883 118.85571289 C35.45879883 119.43321289 35.21129883 120.01071289 34.95629883 120.60571289 C33.53902626 123.15680351 31.79447596 124.83544396 29.70629883 126.85571289 C29.26801758 126.20344727 28.82973633 125.55118164 28.37817383 124.87915039 C23.13635887 117.65567368 17.93364226 114.15539113 9.70629883 110.85571289 C8.93157227 110.52829102 8.1568457 110.20086914 7.35864258 109.86352539 C1.29787185 107.55361277 -4.85660299 107.17157727 -11.29370117 106.85571289 C-11.22022461 106.09774414 -11.14674805 105.33977539 -11.07104492 104.55883789 C-11.0255755 101.81715848 -11.0255755 101.81715848 -12.79760742 100.15258789 C-13.47694336 99.64211914 -14.1562793 99.13165039 -14.85620117 98.60571289 C-21.58689432 93.1303 -27.55208641 86.58183455 -28.69995117 77.71899414 C-29.01052817 65.95589043 -25.81643745 55.89085049 -21.12573242 45.19165039 C-19.18292672 39.73720058 -19.25568341 33.43086496 -21.41479492 28.07446289 C-22.61868404 25.91905801 -23.91198128 23.898583 -25.29370117 21.85571289 C-24.7422644 21.22125244 -24.7422644 21.22125244 -24.1796875 20.57397461 C-22.48790263 18.62676079 -20.79704689 16.67874226 -19.10620117 14.73071289 C-18.52805664 14.06555664 -17.94991211 13.40040039 -17.35424805 12.71508789 C-16.78383789 12.05766602 -16.21342773 11.40024414 -15.62573242 10.72290039 C-14.84806519 9.82740479 -14.84806519 9.82740479 -14.0546875 8.91381836 C-12.14588485 6.74998632 -12.14588485 6.74998632 -10.13949585 3.78056335 C-7.14734199 0.21341996 -4.65562331 0.07159425 0 0 Z M-15.29370117 14.85571289 C-16.49940262 16.42024468 -17.70716344 17.98319622 -18.91870117 19.54321289 C-19.71650757 20.64295154 -20.51094234 21.74521357 -21.29370117 22.85571289 C-20.65432617 23.82508789 -20.01495117 24.79446289 -19.35620117 25.79321289 C-16.37999769 31.13757828 -15.59961184 35.78538833 -16.95776367 41.79321289 C-18.36484729 46.46061221 -19.98860515 51.02919571 -21.67651367 55.60180664 C-25.24197641 65.42571403 -27.75560506 74.27956294 -23.16870117 84.16821289 C-19.88591549 89.95261145 -15.91456929 95.18052989 -10.29370117 98.85571289 C-9.30370117 98.36071289 -9.30370117 98.36071289 -8.29370117 97.85571289 C-8.75260742 97.3362207 -9.21151367 96.81672852 -9.68432617 96.28149414 C-10.95529946 94.83696358 -12.22068264 93.38750039 -13.48120117 91.93383789 C-14.81203859 90.40796396 -16.17038587 88.90597113 -17.54370117 87.41821289 C-21.80778024 81.17438283 -22.82684158 75.18532348 -21.87182617 67.74243164 C-20.64559831 61.61957765 -18.50168724 55.80811274 -16.14135742 50.03930664 C-13.21376518 42.7151168 -11.60968179 35.85696011 -14.19995117 28.16430664 C-15.14762342 26.00158318 -16.15133275 23.9211558 -17.29370117 21.85571289 C-16.5950293 21.09645508 -15.89635742 20.33719727 -15.17651367 19.55493164 C-14.25713695 18.55112236 -13.33787196 17.54721074 -12.41870117 16.54321289 C-11.95850586 16.04370117 -11.49831055 15.54418945 -11.02416992 15.02954102 C-8.90763509 12.71362246 -7.03843734 10.47281715 -5.29370117 7.85571289 C-2.37121582 7.47476196 -2.37121582 7.47476196 1.41918945 7.4675293 C2.45356392 7.45964386 2.45356392 7.45964386 3.50883484 7.45159912 C5.79363499 7.43836972 8.07774131 7.447147 10.36254883 7.45727539 C11.94673802 7.45525549 13.5309263 7.45234475 15.1151123 7.44857788 C18.43742718 7.44415056 21.7595003 7.45059848 25.08178711 7.46459961 C29.34602347 7.48169196 33.60969343 7.47185292 37.873909 7.45388222 C41.14581592 7.44305523 44.41758797 7.44648567 47.6894989 7.45426559 C49.26201952 7.45627062 50.83455227 7.45379774 52.40705872 7.44682693 C54.60283972 7.43922997 56.79769628 7.45079053 58.9934082 7.4675293 C60.86965881 7.47110947 60.86965881 7.47110947 62.78381348 7.47476196 C63.74823364 7.60047577 64.71265381 7.72618958 65.70629883 7.85571289 C66.69629883 9.34071289 66.69629883 9.34071289 67.70629883 10.85571289 C68.36629883 10.85571289 69.02629883 10.85571289 69.70629883 10.85571289 C70.10075195 11.74129883 70.10075195 11.74129883 70.50317383 12.64477539 C71.75097139 14.93780598 73.11482829 16.39784735 74.95629883 18.23071289 C76.56567383 20.05883789 76.56567383 20.05883789 77.70629883 21.85571289 C77.20629883 24.98071289 77.20629883 24.98071289 75.70629883 27.85571289 C72.62677868 34.3569221 73.18937206 39.84616998 75.42114258 46.49243164 C76.14941498 48.51394725 76.89061036 50.53084781 77.64379883 52.54321289 C78.38492601 54.56691249 79.12330865 56.5916198 79.85864258 58.61743164 C80.18856201 59.50390381 80.51848145 60.39037598 80.85839844 61.30371094 C83.08902907 68.01744028 83.72465961 74.63090374 81.58129883 81.41821289 C79.68744795 84.89027283 77.57415998 87.88085328 75.10864258 90.96118164 C73.71011513 92.85055717 72.69280093 94.72694521 71.70629883 96.85571289 C77.67449792 94.27167944 81.29112355 89.13825366 84.64379883 83.73071289 C88.57546922 72.94319225 85.12587154 61.28404146 80.55004883 51.34399414 C77.15038939 43.80403518 76.04077008 36.05331124 78.61254883 28.02758789 C79.55041272 25.89729706 80.54092281 23.86910806 81.70629883 21.85571289 C81.13782227 21.22665039 80.5693457 20.59758789 79.98364258 19.94946289 C79.21149414 19.09352539 78.4393457 18.23758789 77.64379883 17.35571289 C76.88969727 16.52040039 76.1355957 15.68508789 75.35864258 14.82446289 C72.70629883 11.85571289 72.70629883 11.85571289 71.47372437 9.8568573 C68.8978787 6.08048969 66.93150965 4.14470168 62.40351868 3.07669067 C58.19769302 2.74494433 54.05879201 2.66169117 49.84301758 2.68774414 C48.28512405 2.67471486 46.72724553 2.65976407 45.16938782 2.64299011 C41.9100288 2.61772262 38.65241098 2.62273519 35.39306641 2.64794922 C31.2385325 2.6766831 27.09032377 2.61946005 22.93667889 2.53777027 C19.71987084 2.48604003 16.5045538 2.48606712 13.28742409 2.50055504 C11.75770073 2.50034999 10.22787376 2.48325792 8.69855309 2.44816017 C-2.99527316 2.21621829 -8.51062878 5.15749517 -15.29370117 14.85571289 Z M28.70629883 67.85571289 C27.22129883 71.32071289 27.22129883 71.32071289 25.70629883 74.85571289 C27.02629883 75.84571289 28.34629883 76.83571289 29.70629883 77.85571289 C29.70629883 75.87571289 29.70629883 73.89571289 29.70629883 71.85571289 C30.36629883 71.85571289 31.02629883 71.85571289 31.70629883 71.85571289 C31.70629883 74.16571289 31.70629883 76.47571289 31.70629883 78.85571289 C33.02629883 77.53571289 34.34629883 76.21571289 35.70629883 74.85571289 C34.71629883 72.54571289 33.72629883 70.23571289 32.70629883 67.85571289 C31.38629883 67.85571289 30.06629883 67.85571289 28.70629883 67.85571289 Z M4.70629883 102.85571289 C4.70629883 103.84571289 4.70629883 104.83571289 4.70629883 105.85571289 C6.17389648 106.36618164 6.17389648 106.36618164 7.67114258 106.88696289 C16.10285581 109.95538782 22.43608896 113.21138549 28.70629883 119.85571289 C29.36629883 120.51571289 30.02629883 121.17571289 30.70629883 121.85571289 C31.0955957 121.3362207 31.48489258 120.81672852 31.88598633 120.28149414 C36.4811424 114.55343093 41.00805677 111.70754019 47.70629883 108.85571289 C49.41465527 108.08493077 51.12299006 107.31410065 52.83129883 106.54321289 C54.12190855 105.97829203 55.41316125 105.4148231 56.70629883 104.85571289 C56.70629883 104.19571289 56.70629883 103.53571289 56.70629883 102.85571289 C48.6587171 104.96178215 39.65566756 107.3807445 33.83129883 113.66821289 C33.13004883 114.39008789 32.42879883 115.11196289 31.70629883 115.85571289 C30.38629883 115.85571289 29.06629883 115.85571289 27.70629883 115.85571289 C27.37629883 114.86571289 27.04629883 113.87571289 26.70629883 112.85571289 C21.03464239 108.55900347 12.03937327 102.85571289 4.70629883 102.85571289 Z " fill="#F53233" transform="translate(28.293701171875,21.144287109375)"/>
<path d="M0 0 C1.25464554 0.00888245 2.50929108 0.01776489 3.80195618 0.0269165 C4.49489777 0.0263324 5.18783936 0.02574829 5.90177917 0.02514648 C8.19103687 0.02793214 10.47899059 0.05904402 12.76802063 0.09039307 C14.35556324 0.09785381 15.94311506 0.10354753 17.53067017 0.10754395 C21.70827174 0.12281358 25.88531667 0.16210625 30.06269836 0.20635986 C34.32572397 0.24728426 38.58883957 0.26554887 42.852005 0.28570557 C51.2161927 0.32859975 59.57992804 0.3968665 67.94380188 0.48101807 C68.93380188 2.46101807 68.93380188 2.46101807 69.94380188 4.48101807 C70.60380188 4.48101807 71.26380188 4.48101807 71.94380188 4.48101807 C74.17817688 6.67633057 74.17817688 6.67633057 76.69380188 9.60601807 C77.954505 11.03301025 77.954505 11.03301025 79.24067688 12.48883057 C80.94380188 15.48101807 80.94380188 15.48101807 80.27973938 18.69976807 C79.61845032 20.07648682 79.61845032 20.07648682 78.94380188 21.48101807 C75.86428173 27.98222728 76.42687511 33.47147515 78.65864563 40.11773682 C79.38691803 42.13925243 80.12811342 44.15615299 80.88130188 46.16851807 C81.62242906 48.19221767 82.36081171 50.21692498 83.09614563 52.24273682 C83.42606506 53.12920898 83.7559845 54.01568115 84.09590149 54.92901611 C86.32653212 61.64274546 86.96216266 68.25620892 84.81880188 75.04351807 C81.65575605 80.84243541 77.80957074 85.98953912 72.94380188 90.48101807 C72.94380188 89.49101807 72.94380188 88.50101807 72.94380188 87.48101807 C70.96380188 87.48101807 68.98380188 87.48101807 66.94380188 87.48101807 C66.94380188 84.51101807 66.94380188 81.54101807 66.94380188 78.48101807 C64.96380188 77.82101807 62.98380188 77.16101807 60.94380188 76.48101807 C63.70603466 73.71878529 66.15086805 73.90245516 69.94380188 73.48101807 C69.94380188 72.82101807 69.94380188 72.16101807 69.94380188 71.48101807 C68.29380188 71.48101807 66.64380188 71.48101807 64.94380188 71.48101807 C64.94380188 70.82101807 64.94380188 70.16101807 64.94380188 69.48101807 C66.61442688 69.07883057 66.61442688 69.07883057 68.31880188 68.66851807 C72.16221139 67.82292788 72.16221139 67.82292788 73.94380188 64.48101807 C71.96380188 63.98601807 71.96380188 63.98601807 69.94380188 63.48101807 C70.58317688 63.04789307 71.22255188 62.61476807 71.88130188 62.16851807 C74.21126191 60.56862629 74.21126191 60.56862629 74.94380188 57.48101807 C74.28380188 57.15101807 73.62380188 56.82101807 72.94380188 56.48101807 C73.60380188 54.83101807 74.26380188 53.18101807 74.94380188 51.48101807 C72.96380188 52.47101807 70.98380188 53.46101807 68.94380188 54.48101807 C68.94380188 53.49101807 68.94380188 52.50101807 68.94380188 51.48101807 C69.56255188 51.25414307 70.18130188 51.02726807 70.81880188 50.79351807 C73.55790397 49.10171972 73.9940466 47.48857646 74.94380188 44.48101807 C72.05942409 45.77401501 70.07160767 47.1404317 67.94380188 49.48101807 C66.62380188 48.49101807 65.30380188 47.50101807 63.94380188 46.48101807 C64.52130188 46.39851807 65.09880188 46.31601807 65.69380188 46.23101807 C68.64012939 45.2489089 69.974081 43.85826741 71.94380188 41.48101807 C72.73106968 39.34282147 72.73106968 39.34282147 72.94380188 37.48101807 C70.96380188 39.13101807 68.98380188 40.78101807 66.94380188 42.48101807 C67.8315619 38.78201799 68.88962052 35.13551346 69.94380188 31.48101807 C67.96380188 33.13101807 65.98380188 34.78101807 63.94380188 36.48101807 C64.43880188 31.53101807 64.43880188 31.53101807 64.94380188 26.48101807 C63.95380188 27.14101807 62.96380188 27.80101807 61.94380188 28.48101807 C61.44880188 25.01601807 61.44880188 25.01601807 60.94380188 21.48101807 C60.28380188 21.81101807 59.62380188 22.14101807 58.94380188 22.48101807 C58.28825069 25.00835042 58.28825069 25.00835042 57.94380188 27.48101807 C56.95380188 26.49101807 56.95380188 26.49101807 55.94380188 25.48101807 C55.96442688 24.49101807 55.98505188 23.50101807 56.00630188 22.48101807 C55.98567688 21.49101807 55.96505188 20.50101807 55.94380188 19.48101807 C54.95380188 18.82101807 53.96380188 18.16101807 52.94380188 17.48101807 C52.94380188 19.13101807 52.94380188 20.78101807 52.94380188 22.48101807 C50.30380188 21.82101807 47.66380188 21.16101807 44.94380188 20.48101807 C46.26380188 21.80101807 47.58380188 23.12101807 48.94380188 24.48101807 C48.28380188 26.13101807 47.62380188 27.78101807 46.94380188 29.48101807 C48.59380188 29.48101807 50.24380188 29.48101807 51.94380188 29.48101807 C51.94380188 30.47101807 51.94380188 31.46101807 51.94380188 32.48101807 C53.42880188 33.47101807 53.42880188 33.47101807 54.94380188 34.48101807 C56.26020813 36.28570557 56.26020813 36.28570557 57.50630188 38.35601807 C57.92009094 39.03406494 58.33388 39.71211182 58.76020813 40.41070557 C60.88227487 44.12257148 62.23626557 47.23580024 62.94380188 51.48101807 C62.28380188 51.48101807 61.62380188 51.48101807 60.94380188 51.48101807 C61.93380188 53.95601807 61.93380188 53.95601807 62.94380188 56.48101807 C62.28380188 56.48101807 61.62380188 56.48101807 60.94380188 56.48101807 C61.43880188 58.95601807 61.43880188 58.95601807 61.94380188 61.48101807 C61.28380188 61.48101807 60.62380188 61.48101807 59.94380188 61.48101807 C59.94380188 62.80101807 59.94380188 64.12101807 59.94380188 65.48101807 C59.28380188 65.48101807 58.62380188 65.48101807 57.94380188 65.48101807 C57.94380188 67.13101807 57.94380188 68.78101807 57.94380188 70.48101807 C57.28380188 70.48101807 56.62380188 70.48101807 55.94380188 70.48101807 C55.28380188 72.13101807 54.62380188 73.78101807 53.94380188 75.48101807 C53.38692688 75.44621338 52.83005188 75.41140869 52.25630188 75.37554932 C46.44946902 75.16956369 42.21915201 76.13004681 36.94380188 78.48101807 C35.95380188 78.87289307 34.96380188 79.26476807 33.94380188 79.66851807 C32.95380188 80.07070557 32.95380188 80.07070557 31.94380188 80.48101807 C31.61380188 79.82101807 31.28380188 79.16101807 30.94380188 78.48101807 C32.67903001 77.74688309 34.41441141 77.01310667 36.15083313 76.28179932 C38.01058385 75.49759008 38.01058385 75.49759008 39.88130188 74.29351807 C43.20278648 72.98505443 46.39725692 73.3627999 49.94380188 73.48101807 C49.94380188 72.82101807 49.94380188 72.16101807 49.94380188 71.48101807 C48.99505188 71.50164307 48.04630188 71.52226807 47.06880188 71.54351807 C43.94380188 71.48101807 43.94380188 71.48101807 41.94380188 70.48101807 C40.21527965 71.52465413 38.48719629 72.5690491 36.76411438 73.62164307 C34.94380188 74.48101807 34.94380188 74.48101807 32.00630188 74.23101807 C30.98536438 73.85976807 30.98536438 73.85976807 29.94380188 73.48101807 C30.60380188 73.15101807 31.26380188 72.82101807 31.94380188 72.48101807 C31.94380188 70.17101807 31.94380188 67.86101807 31.94380188 65.48101807 C32.60380188 65.48101807 33.26380188 65.48101807 33.94380188 65.48101807 C34.27380188 67.46101807 34.60380188 69.44101807 34.94380188 71.48101807 C35.60380188 70.16101807 36.26380188 68.84101807 36.94380188 67.48101807 C36.28380188 66.49101807 35.62380188 65.50101807 34.94380188 64.48101807 C34.94380188 63.49101807 34.94380188 62.50101807 34.94380188 61.48101807 C33.29380188 61.15101807 31.64380188 60.82101807 29.94380188 60.48101807 C28.95380188 55.53101807 28.95380188 55.53101807 27.94380188 50.48101807 C28.60380188 50.15101807 29.26380188 49.82101807 29.94380188 49.48101807 C30.43880188 51.46101807 30.43880188 51.46101807 30.94380188 53.48101807 C30.96362122 52.91592529 30.98344055 52.35083252 31.00386047 51.76861572 C31.09898424 49.2139381 31.20871246 46.66009266 31.31880188 44.10601807 C31.34973938 43.21656494 31.38067688 42.32711182 31.41255188 41.41070557 C31.45122375 40.55992432 31.48989563 39.70914307 31.52973938 38.83258057 C31.56116028 38.04705811 31.59258118 37.26153564 31.62495422 36.45220947 C31.94380188 34.48101807 31.94380188 34.48101807 33.94380188 32.48101807 C34.43880188 42.87601807 34.43880188 42.87601807 34.94380188 53.48101807 C35.27380188 52.49101807 35.60380188 51.50101807 35.94380188 50.48101807 C36.60380188 50.48101807 37.26380188 50.48101807 37.94380188 50.48101807 C38.28153625 51.119104 38.61927063 51.75718994 38.96723938 52.41461182 C39.413255 53.24090088 39.85927063 54.06718994 40.31880188 54.91851807 C40.75966125 55.742229 41.20052063 56.56593994 41.65473938 57.41461182 C42.77798747 59.61568384 42.77798747 59.61568384 44.94380188 60.48101807 C44.46942688 59.73851807 43.99505188 58.99601807 43.50630188 58.23101807 C41.2770979 54.30761906 40.81541568 51.21127944 40.88130188 46.73101807 C40.89032532 45.93179932 40.89934875 45.13258057 40.90864563 44.30914307 C40.92024719 43.70586182 40.93184875 43.10258057 40.94380188 42.48101807 C44.81880188 44.23101807 44.81880188 44.23101807 45.94380188 46.48101807 C45.53815918 43.56039066 45.23997813 41.83415129 43.31880188 39.54351807 C41.94380188 37.48101807 41.94380188 37.48101807 42.25630188 34.23101807 C42.59661438 32.86976807 42.59661438 32.86976807 42.94380188 31.48101807 C40.96380188 32.14101807 38.98380188 32.80101807 36.94380188 33.48101807 C34.94380188 30.48101807 34.94380188 30.48101807 35.31880188 28.29351807 C35.52505188 27.69539307 35.73130188 27.09726807 35.94380188 26.48101807 C37.26380188 27.14101807 38.58380188 27.80101807 39.94380188 28.48101807 C39.88579407 27.87773682 39.82778625 27.27445557 39.76802063 26.65289307 C39.62838545 24.17935561 39.58772908 21.93537699 39.94380188 19.48101807 C42.38130188 17.04351807 42.38130188 17.04351807 44.94380188 15.48101807 C45.27380188 14.82101807 45.60380188 14.16101807 45.94380188 13.48101807 C44.70630188 13.60476807 43.46880188 13.72851807 42.19380188 13.85601807 C39.99067688 13.87164307 39.99067688 13.87164307 37.94380188 13.48101807 C33.94380188 8.88101807 33.94380188 8.88101807 33.94380188 5.48101807 C33.28380188 5.48101807 32.62380188 5.48101807 31.94380188 5.48101807 C31.63442688 6.61539307 31.32505188 7.74976807 31.00630188 8.91851807 C29.94380188 12.48101807 29.94380188 12.48101807 28.94380188 13.48101807 C27.4245215 13.55281771 25.90212706 13.56493814 24.38130188 13.54351807 C23.55501282 13.53449463 22.72872375 13.52547119 21.87739563 13.51617432 C21.23930969 13.50457275 20.60122375 13.49297119 19.94380188 13.48101807 C20.60380188 15.46101807 21.26380188 17.44101807 21.94380188 19.48101807 C19.30380188 20.14101807 16.66380188 20.80101807 13.94380188 21.48101807 C13.44880188 19.50101807 13.44880188 19.50101807 12.94380188 17.48101807 C9.93286568 19.48830887 9.31363691 20.31986031 7.94380188 23.48101807 C7.28380188 22.82101807 6.62380188 22.16101807 5.94380188 21.48101807 C5.28380188 23.79101807 4.62380188 26.10101807 3.94380188 28.48101807 C2.95380188 27.82101807 1.96380188 27.16101807 0.94380188 26.48101807 C0.86375706 30.00299017 0.90374486 33.10083276 1.94380188 36.48101807 C-0.03619812 34.83101807 -2.01619812 33.18101807 -4.05619812 31.48101807 C-3.74682312 32.55351807 -3.43744812 33.62601807 -3.11869812 34.73101807 C-2.38807716 37.30968029 -1.68136908 39.87613908 -1.05619812 42.48101807 C-3.03619812 40.83101807 -5.01619812 39.18101807 -7.05619812 37.48101807 C-5.92340457 41.18423316 -5.92340457 41.18423316 -4.05619812 44.48101807 C-0.39346509 45.61313555 1.781161 45.92818764 5.38130188 44.54351807 C5.89692688 44.19289307 6.41255188 43.84226807 6.94380188 43.48101807 C6.61380188 45.13101807 6.28380188 46.78101807 5.94380188 48.48101807 C4.55161438 48.45008057 4.55161438 48.45008057 3.13130188 48.41851807 C-0.07905823 48.32332203 -0.07905823 48.32332203 -3.05619812 49.48101807 C-5.53119812 47.00601807 -5.53119812 47.00601807 -8.05619812 44.48101807 C-7.8679104 46.92581885 -7.8679104 46.92581885 -7.05619812 49.48101807 C-5.08861539 50.84121958 -5.08861539 50.84121958 -3.05619812 51.48101807 C-3.38619812 52.47101807 -3.71619812 53.46101807 -4.05619812 54.48101807 C-5.70619812 53.49101807 -7.35619812 52.50101807 -9.05619812 51.48101807 C-8.39619812 53.46101807 -7.73619812 55.44101807 -7.05619812 57.48101807 C-7.71619812 57.48101807 -8.37619812 57.48101807 -9.05619812 57.48101807 C-7.4726117 60.6481909 -6.60356113 62.21370125 -3.36869812 63.79351807 C-2.22401062 64.13383057 -2.22401062 64.13383057 -1.05619812 64.48101807 C-3.72284002 65.81433902 -5.22300115 65.1520384 -8.05619812 64.48101807 C-6.94910321 66.54397099 -6.94910321 66.54397099 -5.05619812 68.48101807 C-1.95422415 69.29048229 -1.95422415 69.29048229 0.94380188 69.48101807 C0.94380188 70.14101807 0.94380188 70.80101807 0.94380188 71.48101807 C-1.03619812 71.48101807 -3.01619812 71.48101807 -5.05619812 71.48101807 C-3.93510246 73.10595708 -3.93510246 73.10595708 -2.05619812 74.48101807 C1.06929205 74.73150443 1.06929205 74.73150443 3.94380188 74.48101807 C4.43880188 75.47101807 4.43880188 75.47101807 4.94380188 76.48101807 C1.97380188 76.97601807 1.97380188 76.97601807 -1.05619812 77.48101807 C-1.03557312 78.78039307 -1.01494812 80.07976807 -0.99369812 81.41851807 C-0.97220358 82.7726744 -0.98471613 84.12857889 -1.05619812 85.48101807 C-2.05619812 86.48101807 -2.05619812 86.48101807 -5.11869812 86.54351807 C-6.08807312 86.52289307 -7.05744812 86.50226807 -8.05619812 86.48101807 C-8.55119812 87.47101807 -8.55119812 87.47101807 -9.05619812 88.48101807 C-15.66513552 82.29593176 -20.35017913 77.26471787 -21.04447937 67.93023682 C-21.0839777 59.67508507 -18.3824259 52.56250589 -15.43119812 44.98101807 C-11.91220056 35.81251592 -10.04796898 28.6556995 -14.05619812 19.29351807 C-14.70247061 18.0121931 -15.36163113 16.73682 -16.05619812 15.48101807 C-15.36912781 14.73336182 -14.6820575 13.98570557 -13.97416687 13.21539307 C-13.06391702 12.22068704 -12.15376599 11.22589059 -11.24369812 10.23101807 C-10.79188171 9.73988525 -10.34006531 9.24875244 -9.8745575 8.74273682 C-7.10543103 5.72442139 -7.10543103 5.72442139 -4.82980347 2.33459473 C-3.05619812 0.48101807 -3.05619812 0.48101807 0 0 Z " fill="#0649A7" transform="translate(26.056198120117188,27.51898193359375)"/>
<path d="M0 0 C0.66 0 1.32 0 2 0 C2.495 1.134375 2.99 2.26875 3.5 3.4375 C4.82541249 5.8194007 5.430125 6.8085916 8.046875 7.6875 C10.50160806 8.00182131 10.50160806 8.00182131 14 8 C13 11 13 11 10.953125 12.36328125 C8.7453007 13.84926681 8.7453007 13.84926681 8.609375 16.48046875 C8.65578125 17.37378906 8.7021875 18.26710938 8.75 19.1875 C8.80414063 20.53908203 8.80414063 20.53908203 8.859375 21.91796875 C8.90578125 22.60503906 8.9521875 23.29210937 9 24 C6.525 23.01 6.525 23.01 4 22 C4.495 24.475 4.495 24.475 5 27 C6.98 26.67 8.96 26.34 11 26 C10.9175 26.86625 10.835 27.7325 10.75 28.625 C11.05673246 32.76588825 12.71506073 34.60944496 15 38 C14.75 40.375 14.75 40.375 14 42 C12.35 40.35 10.7 38.7 9 37 C9.2840051 39.06356895 9.57753352 41.1258285 9.875 43.1875 C10.03742188 44.33605469 10.19984375 45.48460937 10.3671875 46.66796875 C10.94060245 49.68724625 11.74759043 52.20575848 13 55 C9.78634109 53.89184175 9.0085776 53.01470446 7.25 50 C6 47 6 47 6 45 C5.34 45 4.68 45 4 45 C3.67 46.32 3.34 47.64 3 49 C1.45049732 47.45049732 1.78344807 45.90009406 1.68359375 43.74609375 C1.62643188 42.59258423 1.62643188 42.59258423 1.56811523 41.41577148 C1.52501221 40.43294189 1.48190918 39.4501123 1.4375 38.4375 C1.293125 35.323125 1.14875 32.20875 1 29 C0.67 35.27 0.34 41.54 0 48 C-0.99 48.495 -0.99 48.495 -2 49 C-2.495 47.02 -2.495 47.02 -3 45 C-2.76603516 45.99580078 -2.76603516 45.99580078 -2.52734375 47.01171875 C-2.33269531 47.89472656 -2.13804688 48.77773437 -1.9375 49.6875 C-1.64166016 50.99267578 -1.64166016 50.99267578 -1.33984375 52.32421875 C-0.83935291 56.26486499 -1.75747908 59.27243724 -3 63 C-1.21653709 66.03188696 -0.40424844 66.86525052 3 68 C4.77363234 66.96806846 6.54613286 65.9335879 8.296875 64.86328125 C10 64 10 64 12.1875 64.1875 C12.785625 64.455625 13.38375 64.72375 14 65 C15.11375 65.2784375 15.11375 65.2784375 16.25 65.5625 C16.8275 65.706875 17.405 65.85125 18 66 C18 66.66 18 67.32 18 68 C17.3709375 68.09796875 16.741875 68.1959375 16.09375 68.296875 C10.05761911 69.35137979 5.35559155 71.02467136 0 74 C0.99 73.5978125 0.99 73.5978125 2 73.1875 C2.99 72.795625 3.98 72.40375 5 72 C5.58136719 71.73574219 6.16273437 71.47148438 6.76171875 71.19921875 C12.24696647 68.85157723 17.08178233 68.67255763 23 69 C23.66 70.65 24.32 72.3 25 74 C22.38808113 77.38013031 19.0239008 78.1872982 15 79 C12.20146359 79.26934837 9.43479664 79.28552013 6.625 79.25 C5.852771 79.24395752 5.08054199 79.23791504 4.28491211 79.23168945 C-1.3153405 79.13792571 -6.86831884 78.77881068 -12.4375 78.1875 C-13.51040283 78.08260254 -13.51040283 78.08260254 -14.60498047 77.97558594 C-17.40182818 77.63554778 -19.6027379 77.25549406 -21.9921875 75.71875 C-23.36920577 73.37034674 -23.11178192 71.9739048 -22.6875 69.3125 C-22.56761719 68.50425781 -22.44773437 67.69601563 -22.32421875 66.86328125 C-22.21722656 66.24839844 -22.11023438 65.63351563 -22 65 C-22.66 65 -23.32 65 -24 65 C-24 63.35 -24 61.7 -24 60 C-24.66 60 -25.32 60 -26 60 C-26 58.68 -26 57.36 -26 56 C-26.66 56 -27.32 56 -28 56 C-27.67 54.35 -27.34 52.7 -27 51 C-27.66 50.67 -28.32 50.34 -29 50 C-28.34 48.68 -27.68 47.36 -27 46 C-27.66 45.67 -28.32 45.34 -29 45 C-28.01 43.35 -27.02 41.7 -26 40 C-27.485 40.495 -27.485 40.495 -29 41 C-35.29131287 40.66296538 -35.29131287 40.66296538 -37.9375 38.1875 C-39 36 -39 36 -39 32 C-37.68 32.66 -36.36 33.32 -35 34 C-35.495 32.515 -35.495 32.515 -36 31 C-36.03874921 29.33378384 -36.0450286 27.66605828 -36 26 C-34.68 26.66 -33.36 27.32 -32 28 C-32 27.67 -32 27.34 -32 27 C-32 25 -32 23 -32 21 C-31.01 21 -30.02 21 -29 21 C-28.34 19.35 -27.68 17.7 -27 16 C-26.01 16 -25.02 16 -24 16 C-22.9739266 14.68662604 -21.97272675 13.35335895 -21 12 C-20.34 12 -19.68 12 -19 12 C-18.01 13.485 -18.01 13.485 -17 15 C-15.02 14.34 -13.04 13.68 -11 13 C-11.33 11.35 -11.66 9.7 -12 8 C-7.545 7.505 -7.545 7.505 -3 7 C-2.01 4.69 -1.02 2.38 0 0 Z " fill="#0649A8" transform="translate(58,33)"/>
<path d="M0 0 C3.3 0 6.6 0 10 0 C10.33 5.94 10.66 11.88 11 18 C11.84304688 16.86820313 12.68609375 15.73640625 13.5546875 14.5703125 C14.66137369 13.08847845 15.76814916 11.60671107 16.875 10.125 C17.43058594 9.37863281 17.98617188 8.63226563 18.55859375 7.86328125 C19.09355469 7.14785156 19.62851562 6.43242188 20.1796875 5.6953125 C20.67194824 5.03547363 21.16420898 4.37563477 21.67138672 3.69580078 C23 2 23 2 25 0 C27.8203125 -0.1953125 27.8203125 -0.1953125 31.125 -0.125 C32.22070312 -0.10695312 33.31640625 -0.08890625 34.4453125 -0.0703125 C35.70988281 -0.03550781 35.70988281 -0.03550781 37 0 C34.9492974 4.9118625 31.24923408 8.79921502 27.90039062 12.8671875 C27.41634766 13.46789062 26.93230469 14.06859375 26.43359375 14.6875 C25.99072021 15.22761719 25.54784668 15.76773438 25.09155273 16.32421875 C23.79298828 18.31780999 23.20133207 19.6169199 23 22 C24.05661567 24.35780309 24.05661567 24.35780309 25.74609375 26.6953125 C26.33583984 27.57574219 26.92558594 28.45617187 27.53320312 29.36328125 C28.16162109 30.27464844 28.79003906 31.18601562 29.4375 32.125 C30.66915773 33.93753243 31.89721787 35.75251647 33.12109375 37.5703125 C33.94758423 38.77324951 33.94758423 38.77324951 34.79077148 40.00048828 C36 42 36 42 36 44 C36.66 44 37.32 44 38 44 C38.10054688 43.35579102 38.20109375 42.71158203 38.3046875 42.04785156 C39.2346318 37.97150863 40.6709644 34.14971384 42.125 30.234375 C42.43195801 29.4003717 42.73891602 28.56636841 43.05517578 27.70709229 C43.70231107 25.95152808 44.35127494 24.19663697 45.00195312 22.44238281 C46.00102487 19.74723525 46.99310357 17.04958742 47.984375 14.3515625 C48.61417008 12.64568071 49.24436444 10.93994626 49.875 9.234375 C50.17293457 8.42401794 50.47086914 7.61366089 50.77783203 6.77874756 C52.88466307 1.11533693 52.88466307 1.11533693 54 0 C55.68608966 -0.07205511 57.37500659 -0.08386068 59.0625 -0.0625 C59.98160156 -0.05347656 60.90070313 -0.04445312 61.84765625 -0.03515625 C62.55792969 -0.02355469 63.26820313 -0.01195312 64 0 C66.42567544 6.37032287 68.84623068 12.7425736 71.26318359 19.11621094 C72.08654009 21.28560742 72.91108118 23.45455469 73.73681641 25.62304688 C74.92139132 28.73451135 76.10173964 31.84755019 77.28125 34.9609375 C77.83903137 36.42193375 77.83903137 36.42193375 78.40808105 37.91244507 C78.74843384 38.81322784 79.08878662 39.71401062 79.43945312 40.64208984 C79.89245789 41.83455826 79.89245789 41.83455826 80.35461426 43.05111694 C81 45 81 45 81 47 C77.37 47 73.74 47 70 47 C67 40.375 67 40.375 67 37 C59.08 37.495 59.08 37.495 51 38 C50.01 40.97 49.02 43.94 48 47 C32.82240022 49.04957879 32.82240022 49.04957879 26 47 C20.59486053 42.74928387 17.63286943 36.21925402 15 30 C12.89970173 31.019062 12.89970173 31.019062 11 33 C10.29727224 36.41627532 10.29727224 36.41627532 10.25 40.1875 C10.19328125 41.45980469 10.1365625 42.73210937 10.078125 44.04296875 C10.05234375 45.01878906 10.0265625 45.99460938 10 47 C6.7 47 3.4 47 0 47 C0 31.49 0 15.98 0 0 Z M58 14 C57.32779649 15.93558599 56.66241923 17.87354372 56 19.8125 C55.62875 20.89144531 55.2575 21.97039062 54.875 23.08203125 C53.85638488 25.97120802 53.85638488 25.97120802 54 29 C57.3 29 60.6 29 64 29 C63.54705135 27.24859857 63.08741252 25.49892656 62.625 23.75 C62.36976563 22.77546875 62.11453125 21.8009375 61.8515625 20.796875 C61.10401491 18.34162697 60.22876183 16.24382595 59 14 C58.67 14 58.34 14 58 14 Z " fill="#FDFDFD" transform="translate(287,57)"/>
<path d="M0 0 C11 0 11 0 13.7175293 2.38671875 C14.33023682 3.47597656 14.94294434 4.56523438 15.57421875 5.6875 C16.08357719 6.55314575 16.08357719 6.55314575 16.60322571 7.4362793 C17.67117061 9.27117927 18.67858276 11.13211691 19.6875 13 C20.404438 14.25476296 21.12510973 15.50740038 21.84960938 16.7578125 C23.61885681 19.81396958 25.3024689 22.89886413 27 26 C27.33 17.42 27.66 8.84 28 0 C31.63 0 35.26 0 39 0 C39 15.51 39 31.02 39 47 C28 47 28 47 25.2824707 44.52148438 C24.66976318 43.39033203 24.05705566 42.25917969 23.42578125 41.09375 C23.08620895 40.49445679 22.74663666 39.89516357 22.39677429 39.27770996 C21.32817261 37.37106506 20.32102557 35.43897175 19.3125 33.5 C18.59563078 32.19710193 17.87496074 30.89628745 17.15039062 29.59765625 C15.38031293 26.42246533 13.6969682 23.21934243 12 20 C11.67 28.91 11.34 37.82 11 47 C7.37 47 3.74 47 0 47 C0 31.49 0 15.98 0 0 Z " fill="#FDFDFD" transform="translate(226,57)"/>
<path d="M0 0 C3.3 0 6.6 0 10 0 C12.64631886 3.04045146 14.11734797 5.48771752 16 9 C17.38032115 11.29338597 18.78637915 13.56964492 20.19702148 15.84448242 C22.48496984 19.55053932 24.73891977 23.27748987 27 27 C27.33 18.09 27.66 9.18 28 0 C31.3 0 34.6 0 38 0 C38 15.51 38 31.02 38 47 C34.7 47 31.4 47 28 47 C25.57481196 44.44170258 24.35846963 42.78131299 22.8125 39.75 C22.43931641 39.08742187 22.06613281 38.42484375 21.68164062 37.7421875 C20.4282623 35.50927821 19.21545624 33.25377622 18 31 C14.535 25.06 14.535 25.06 11 19 C10.67 28.24 10.34 37.48 10 47 C6.7 47 3.4 47 0 47 C0 31.49 0 15.98 0 0 Z " fill="#FEFEFE" transform="translate(530,57)"/>
<path d="M0 0 C26.64705882 0 26.64705882 0 32.375 5.125 C34.59775767 9.05757126 35.2007332 12.49894405 35 17 C33.49348995 21.83669016 31.61002128 24.55441033 28 28 C28.86625 29.68029297 28.86625 29.68029297 29.75 31.39453125 C30.50031605 32.8670265 31.25029875 34.33969164 32 35.8125 C32.3815625 36.55048828 32.763125 37.28847656 33.15625 38.04882812 C33.5171875 38.76103516 33.878125 39.47324219 34.25 40.20703125 C34.58515625 40.8616333 34.9203125 41.51623535 35.265625 42.19067383 C36 44 36 44 36 47 C32.37 47 28.74 47 25 47 C24.50371094 45.85660156 24.00742187 44.71320313 23.49609375 43.53515625 C22.81130234 42.04362428 22.12502626 40.55277331 21.4375 39.0625 C20.95313477 37.93038086 20.95313477 37.93038086 20.45898438 36.77539062 C19.95141602 35.69741211 19.95141602 35.69741211 19.43359375 34.59765625 C19.13509521 33.93258057 18.83659668 33.26750488 18.52905273 32.58227539 C16.54408294 30.20439863 16.54408294 30.20439863 10 30 C10 35.61 10 41.22 10 47 C6.7 47 3.4 47 0 47 C0 31.49 0 15.98 0 0 Z M10 8 C10 12.29 10 16.58 10 21 C11.753125 21.061875 13.50625 21.12375 15.3125 21.1875 C16.29863281 21.22230469 17.28476562 21.25710937 18.30078125 21.29296875 C21.00156644 21.22102765 21.00156644 21.22102765 22.828125 19.70703125 C24.81052556 16.81933443 24.42142513 14.37140101 24 11 C21.81735287 8.80731771 20.51205282 8.05818782 17.421875 7.70703125 C16.09929687 7.75923828 16.09929687 7.75923828 14.75 7.8125 C12.39875 7.9053125 12.39875 7.9053125 10 8 Z " fill="#FDFDFD" transform="translate(371,57)"/>
<path d="M0 0 C1.9375 0.8125 1.9375 0.8125 4 2 C4.33 2.99 4.66 3.98 5 5 C5.99 4.34 6.98 3.68 8 3 C10.6875 2.875 10.6875 2.875 13 3 C13 7 13 7 12.4375 9 C11.92649454 11.33602498 12.3923646 12.72136724 13 15 C12.67 15.66 12.34 16.32 12 17 C12.66 17 13.32 17 14 17 C14 18.32 14 19.64 14 21 C14.66 21 15.32 21 16 21 C16.309375 21.639375 16.61875 22.27875 16.9375 22.9375 C17.8345163 24.93610821 17.8345163 24.93610821 19 26 C18.77869107 28.30793594 18.41524614 30.58042943 18.05859375 32.87109375 C18.03925781 33.57363281 18.01992188 34.27617188 18 35 C20.82119155 37.82119155 23.82274354 37.67435211 27.625 38.0625 C28.37322021 38.14483887 29.12144043 38.22717773 29.89233398 38.31201172 C37.5786388 39.1253347 45.28237546 39.60528973 53 40 C53 41.32 53 42.64 53 44 C50 45 50 45 47 44 C44.58835972 45.94857727 44.58835972 45.94857727 44.9375 49.5625 C44.958125 50.696875 44.97875 51.83125 45 53 C42.74918189 55.25081811 37.01262687 54.24651514 33.87524414 54.25976562 C27.28110301 54.1878572 21.28258317 53.03366854 15 51 C14.731875 51.639375 14.46375 52.27875 14.1875 52.9375 C13 55 13 55 10 56 C8.10529184 56.0685495 6.2083166 56.08480372 4.3125 56.0625 C3.31863281 56.05347656 2.32476563 56.04445312 1.30078125 56.03515625 C0.16189453 56.01775391 0.16189453 56.01775391 -1 56 C-0.67 55.2575 -0.34 54.515 0 53.75 C1.5070741 49.60554622 0.93167619 46.19254285 0 42 C2.97 41.505 2.97 41.505 6 41 C6 38.36 6 35.72 6 33 C7.65 32.34 9.3 31.68 11 31 C8.69 30.67 6.38 30.34 4 30 C3.67 29.01 3.34 28.02 3 27 C4.98 27 6.96 27 9 27 C9 26.34 9 25.68 9 25 C8.071875 25.061875 7.14375 25.12375 6.1875 25.1875 C3 25 3 25 1.125 23.625 C0 22 0 22 0 20 C1.98 20 3.96 20 6 20 C4.824375 19.566875 4.824375 19.566875 3.625 19.125 C1 18 1 18 -1 16 C-1 15.01 -1 14.02 -1 13 C-0.34 13 0.32 13 1 13 C0.34 12.01 -0.32 11.02 -1 10 C-1 9.01 -1 8.02 -1 7 C2.875 7.875 2.875 7.875 4 9 C4.33 8.34 4.66 7.68 5 7 C2.525 6.01 2.525 6.01 0 5 C0 3.35 0 1.7 0 0 Z " fill="#EF3335" transform="translate(18,72)"/>
<path d="M0 0 C23.31428571 0 23.31428571 0 29.6875 5.1875 C36.15886148 13.05807477 36.93866321 19.84105012 36 30 C34.98969322 36.11088468 31.97643726 39.50337884 27.42578125 43.5546875 C18.93171261 48.61556576 9.58327946 47 0 47 C0 31.49 0 15.98 0 0 Z M10 8 C10 18.23 10 28.46 10 39 C18.48893489 38.57451115 18.48893489 38.57451115 24 34 C26.98827204 27.88115726 26.88399582 21.02780526 24.8125 14.625 C23.698746 12.0365532 22.94547626 10.95014972 20.8125 9 C17.24121183 7.55332044 17.24121183 7.55332044 10 8 Z " fill="#FEFEFE" transform="translate(183,57)"/>
<path d="M0 0 C2.39452878 1.88339966 3.36173111 3.30478344 5 6 C5.3125 9.375 5.3125 9.375 5 12 C1.7 12 -1.6 12 -5 12 C-5.33 10.35 -5.66 8.7 -6 7 C-12.06050614 5.9187609 -12.06050614 5.9187609 -18 7 C-18.33425735 9.37374861 -18.33425735 9.37374861 -18 12 C-14.93490412 14.89481277 -11.57741932 15.94173999 -7.625 17.25 C-1.86449097 19.40533653 2.02155597 21.50696799 5 27 C6.49777428 31.58693375 5.99239138 34.63571412 4 39 C0.66062595 43.14542985 -2.78344764 44.75592381 -8.05078125 45.3359375 C-15.9252642 45.43024269 -21.48114264 44.70999268 -27.63671875 39.65625 C-30.14900881 36.60406953 -30.28176595 32.81216532 -31 29 C-27.37 29 -23.74 29 -20 29 C-19.71125 29.969375 -19.4225 30.93875 -19.125 31.9375 C-18.35785318 35.10664203 -18.35785318 35.10664203 -16 36 C-14.08499697 36.15898854 -14.08499697 36.15898854 -12 36.125 C-11.29875 36.12757812 -10.5975 36.13015625 -9.875 36.1328125 C-7.90846225 36.11377236 -7.90846225 36.11377236 -6 35 C-6 32.69 -6 30.38 -6 28 C-6.61746094 27.84144531 -7.23492187 27.68289062 -7.87109375 27.51953125 C-15.15482426 25.5129023 -22.93841363 22.92281151 -28 17 C-29.24755223 13.2573433 -29.63207962 9.88067488 -29 6 C-26.12847825 1.2440421 -23.31651961 -0.87280319 -18.03515625 -2.53125 C-11.68649446 -3.99351375 -5.76411733 -2.87667164 0 0 Z " fill="#FDFDFD" transform="translate(173,59)"/>
<path d="M0 0 C1.37478516 0.01740234 1.37478516 0.01740234 2.77734375 0.03515625 C3.69644531 0.04417969 4.61554688 0.05320313 5.5625 0.0625 C6.27277344 0.07410156 6.98304688 0.08570313 7.71484375 0.09765625 C10.14051919 6.46797912 12.56107443 12.84022985 14.97802734 19.21386719 C15.80138384 21.38326367 16.62592493 23.55221094 17.45166016 25.72070312 C18.63623507 28.8321676 19.81658339 31.94520644 20.99609375 35.05859375 C21.367948 36.03259125 21.73980225 37.00658875 22.1229248 38.01010132 C22.46327759 38.91088409 22.80363037 39.81166687 23.15429688 40.73974609 C23.60730164 41.93221451 23.60730164 41.93221451 24.06945801 43.14877319 C24.71484375 45.09765625 24.71484375 45.09765625 24.71484375 47.09765625 C21.08484375 47.09765625 17.45484375 47.09765625 13.71484375 47.09765625 C10.71484375 40.47265625 10.71484375 40.47265625 10.71484375 37.09765625 C2.79484375 37.59265625 2.79484375 37.59265625 -5.28515625 38.09765625 C-6.27515625 41.06765625 -7.26515625 44.03765625 -8.28515625 47.09765625 C-11.91515625 47.09765625 -15.54515625 47.09765625 -19.28515625 47.09765625 C-18.63013665 41.65363009 -16.87685219 36.88558754 -14.94140625 31.796875 C-14.6122522 30.91989456 -14.28309814 30.04291412 -13.94396973 29.13935852 C-13.25056475 27.29529536 -12.55450868 25.45222713 -11.85595703 23.61010742 C-10.7830258 20.77953578 -9.71899974 17.94573612 -8.65625 15.11132812 C-7.98098743 13.31881494 -7.30522384 11.52649039 -6.62890625 9.734375 C-6.3090979 8.88340744 -5.98928955 8.03243988 -5.65979004 7.15568542 C-2.98843601 0.12771094 -2.98843601 0.12771094 0 0 Z M1.71484375 14.09765625 C1.04264024 16.03324224 0.37726298 17.97119997 -0.28515625 19.91015625 C-0.65640625 20.98910156 -1.02765625 22.06804687 -1.41015625 23.1796875 C-2.42877137 26.06886427 -2.42877137 26.06886427 -2.28515625 29.09765625 C1.01484375 29.09765625 4.31484375 29.09765625 7.71484375 29.09765625 C7.2618951 27.34625482 6.80225627 25.59658281 6.33984375 23.84765625 C6.08460938 22.873125 5.829375 21.89859375 5.56640625 20.89453125 C4.81885866 18.43928322 3.94360558 16.3414822 2.71484375 14.09765625 C2.38484375 14.09765625 2.05484375 14.09765625 1.71484375 14.09765625 Z " fill="#FDFDFD" transform="translate(502.28515625,56.90234375)"/>
<path d="M0 0 C0.716185 -0.01854538 1.43237 -0.03709076 2.17025757 -0.05619812 C4.53061317 -0.10795746 6.88837963 -0.11494409 9.24926758 -0.11694336 C10.89969431 -0.13369907 12.55011082 -0.15149189 14.20051575 -0.17027283 C17.65981675 -0.2016606 21.11821215 -0.20881411 24.57763672 -0.20117188 C28.98972376 -0.19498765 33.39670717 -0.26634754 37.80768871 -0.35860538 C41.21823178 -0.41813638 44.6275661 -0.42678559 48.0385685 -0.42156792 C49.66324427 -0.42676768 51.28796974 -0.44946961 52.91213036 -0.4907093 C65.55002288 -0.77915684 65.55002288 -0.77915684 70.88516235 3.26589966 C73.40512575 6.01555367 75.57619003 8.79893833 77.70629883 11.85571289 C78.73581613 13.05376123 79.77485311 14.24384151 80.83129883 15.41821289 C82.70629883 17.85571289 82.70629883 17.85571289 82.70629883 19.85571289 C84.19129883 20.35071289 84.19129883 20.35071289 85.70629883 20.85571289 C85.22797865 23.84521403 84.35592434 25.38658333 82.64379883 27.98071289 C79.65291286 33.10252034 79.90546816 38.73147714 81.35400391 44.38256836 C82.20953844 46.86866555 83.1475976 49.29772045 84.14379883 51.73071289 C84.7898497 53.3733452 85.43443661 55.01655421 86.07739258 56.66040039 C86.36541748 57.37180176 86.65344238 58.08320312 86.95019531 58.81616211 C89.8061729 66.5200164 90.31400515 76.89250332 87.76489258 84.76196289 C86.55948663 86.96872487 85.26818779 88.88825056 83.70629883 90.85571289 C82.94317383 91.90758789 82.18004883 92.95946289 81.39379883 94.04321289 C78.15496181 97.43269349 74.69316982 100.37381969 70.70629883 102.85571289 C70.04629883 102.85571289 69.38629883 102.85571289 68.70629883 102.85571289 C69.23027464 98.90842847 70.91523768 97.5425897 73.95629883 95.10571289 C79.67056223 90.23767003 84.31639586 84.65599369 84.94458008 76.92211914 C85.14582745 67.42112473 83.51412343 59.95514269 79.55004883 51.34399414 C76.15038939 43.80403518 75.04077008 36.05331124 77.61254883 28.02758789 C78.55041272 25.89729706 79.54092281 23.86910806 80.70629883 21.85571289 C79.83618164 20.8947168 79.83618164 20.8947168 78.94848633 19.91430664 C78.16731445 19.0493457 77.38614258 18.18438477 76.58129883 17.29321289 C75.8155957 16.44629883 75.04989258 15.59938477 74.26098633 14.72680664 C71.70629883 11.85571289 71.70629883 11.85571289 70.69981384 10.08047485 C69.23334019 7.76620661 67.97724834 6.41761137 65.70629883 4.85571289 C60.46160102 3.74322608 55.24033985 3.79587473 49.90551758 3.82055664 C48.34380263 3.80820679 46.7820998 3.79422855 45.22041321 3.77870178 C41.95102835 3.75488665 38.68296975 3.75781024 35.41357422 3.77832031 C31.24254892 3.80136633 27.07661335 3.74740812 22.90635967 3.67171383 C19.68109516 3.62366466 16.45703534 3.62245778 13.23148537 3.6343708 C11.69536314 3.6335029 10.15916254 3.61716196 8.62338829 3.58445549 C-0.28106455 3.34387678 -0.28106455 3.34387678 -8.17196655 7.00149536 C-10.46594676 9.51430376 -12.39602434 12.03585605 -14.29370117 14.85571289 C-15.47579609 16.40152788 -16.6623167 17.94398513 -17.85620117 19.48071289 C-18.6738705 20.60196135 -19.48859629 21.72540878 -20.29370117 22.85571289 C-19.65432617 23.82508789 -19.01495117 24.79446289 -18.35620117 25.79321289 C-15.37999769 31.13757828 -14.59961184 35.78538833 -15.95776367 41.79321289 C-17.36484729 46.46061221 -18.98860515 51.02919571 -20.67651367 55.60180664 C-23.82903593 64.28794052 -26.4874071 72.54321215 -23.33666992 81.60961914 C-19.55514535 89.66486671 -14.66214234 94.94341878 -7.29370117 99.85571289 C-8.28370117 100.84571289 -9.27370117 101.83571289 -10.29370117 102.85571289 C-27.32791905 88.31266521 -27.32791905 88.31266521 -28.69995117 77.71899414 C-29.01052817 65.95589043 -25.81643745 55.89085049 -21.12573242 45.19165039 C-19.18292672 39.73720058 -19.25568341 33.43086496 -21.41479492 28.07446289 C-22.61868404 25.91905801 -23.91198128 23.898583 -25.29370117 21.85571289 C-24.7422644 21.22125244 -24.7422644 21.22125244 -24.1796875 20.57397461 C-22.48790263 18.62676079 -20.79704689 16.67874226 -19.10620117 14.73071289 C-18.52805664 14.06555664 -17.94991211 13.40040039 -17.35424805 12.71508789 C-16.78383789 12.05766602 -16.21342773 11.40024414 -15.62573242 10.72290039 C-14.84806519 9.82740479 -14.84806519 9.82740479 -14.0546875 8.91381836 C-12.14588485 6.74998632 -12.14588485 6.74998632 -10.13949585 3.78056335 C-7.14734199 0.21341996 -4.65562331 0.07159425 0 0 Z " fill="#3FDF2D" transform="translate(28.293701171875,21.144287109375)"/>
<path d="M0 0 C10.23 0 20.46 0 31 0 C31 2.64 31 5.28 31 8 C24.07 8 17.14 8 10 8 C10 11.63 10 15.26 10 19 C15.94 19 21.88 19 28 19 C28 21.64 28 24.28 28 27 C22.06 27 16.12 27 10 27 C10 30.96 10 34.92 10 39 C16.93 39 23.86 39 31 39 C31 41.64 31 44.28 31 47 C20.77 47 10.54 47 0 47 C0 31.49 0 15.98 0 0 Z " fill="#FEFEFE" transform="translate(412,57)"/>
<path d="M0 0 C1.32 0.66 2.64 1.32 4 2 C4 4.31 4 6.62 4 9 C4.66 7.35 5.32 5.7 6 4 C6.66 4 7.32 4 8 4 C8.66 5.65 9.32 7.3 10 9 C10.99 9 11.98 9 13 9 C13 11.33333333 13 13.66666667 13 16 C14.32 15.34 15.64 14.68 17 14 C17.125 19.75 17.125 19.75 16 22 C17.32 21.34 18.64 20.68 20 20 C19.75 22.875 19.75 22.875 19 26 C17 27.25 17 27.25 15 28 C14.67 28.66 14.34 29.32 14 30 C14.99 30.33 15.98 30.66 17 31 C17.66 29.68 18.32 28.36 19 27 C19.99 27 20.98 27 22 27 C21.25 29.9375 21.25 29.9375 20 33 C17.875 33.875 17.875 33.875 16 34 C16.33 34.66 16.66 35.32 17 36 C17.66 35.34 18.32 34.68 19 34 C19.99 34 20.98 34 22 34 C21.814375 34.7425 21.62875 35.485 21.4375 36.25 C20.81104559 38.91934374 20.81104559 38.91934374 21.625 41.125 C21.74875 41.74375 21.8725 42.3625 22 43 C20.5625 44.75 20.5625 44.75 19 46 C19.66 46.33 20.32 46.66 21 47 C19.125 50.875 19.125 50.875 18 52 C16.00041636 52.04080783 13.99954746 52.04254356 12 52 C13.98 52.66 15.96 53.32 18 54 C17.67 54.99 17.34 55.98 17 57 C15.2984375 57.185625 15.2984375 57.185625 13.5625 57.375 C12.386875 57.58125 11.21125 57.7875 10 58 C9.67 58.66 9.34 59.32 9 60 C7.515 59.505 7.515 59.505 6 59 C5.6278958 57.67696283 5.29369827 56.34262065 5 55 C4.34 54.67 3.68 54.34 3 54 C2.67 55.32 2.34 56.64 2 58 C2 56.35 2 54.7 2 53 C2.99 52.505 2.99 52.505 4 52 C4.65213292 49.97536745 4.65213292 49.97536745 5 48 C5.66 48 6.32 48 7 48 C7 46.68 7 45.36 7 44 C7.66 44 8.32 44 9 44 C8.835 43.236875 8.67 42.47375 8.5 41.6875 C7.89004341 38.40898331 8 35.34103238 8 32 C7.48545529 27.98655125 6.07718352 25.43186843 4 22 C4 21.01 4 20.02 4 19 C3.01 18.67 2.02 18.34 1 18 C-0.6875 16.5625 -0.6875 16.5625 -2 15 C-2 14.34 -2 13.68 -2 13 C-3.32 12.67 -4.64 12.34 -6 12 C-5.34 10.35 -4.68 8.7 -4 7 C-5.32 6.34 -6.64 5.68 -8 5 C-8 4.34 -8 3.68 -8 3 C-6.00045254 2.95745644 -3.99958364 2.95919217 -2 3 C-1.67 3.33 -1.34 3.66 -1 4 C-0.67 2.68 -0.34 1.36 0 0 Z " fill="#CC7F20" transform="translate(79,45)"/>
<path d="M0 0 C0.66 0 1.32 0 2 0 C2.495 1.134375 2.99 2.26875 3.5 3.4375 C4.82541249 5.8194007 5.430125 6.8085916 8.046875 7.6875 C10.50160806 8.00182131 10.50160806 8.00182131 14 8 C13 11 13 11 10.953125 12.36328125 C8.7453007 13.84926681 8.7453007 13.84926681 8.609375 16.48046875 C8.65578125 17.37378906 8.7021875 18.26710938 8.75 19.1875 C8.80414063 20.53908203 8.80414063 20.53908203 8.859375 21.91796875 C8.90578125 22.60503906 8.9521875 23.29210937 9 24 C7.35 23.34 5.7 22.68 4 22 C4.33 23.65 4.66 25.3 5 27 C6.98 26.67 8.96 26.34 11 26 C10.9175 26.86625 10.835 27.7325 10.75 28.625 C11.05673246 32.76588825 12.71506073 34.60944496 15 38 C14.75 40.375 14.75 40.375 14 42 C11.525 39.525 11.525 39.525 9 37 C9.2840051 39.06356895 9.57753352 41.1258285 9.875 43.1875 C10.03742188 44.33605469 10.19984375 45.48460937 10.3671875 46.66796875 C10.94060245 49.68724625 11.74759043 52.20575848 13 55 C9.78634109 53.89184175 9.0085776 53.01470446 7.25 50 C6 47 6 47 6 45 C5.34 45 4.68 45 4 45 C3.67 46.32 3.34 47.64 3 49 C1.45049732 47.45049732 1.78344807 45.90009406 1.68359375 43.74609375 C1.64548584 42.9770874 1.60737793 42.20808105 1.56811523 41.41577148 C1.52501221 40.43294189 1.48190918 39.4501123 1.4375 38.4375 C1.293125 35.323125 1.14875 32.20875 1 29 C0.67 35.27 0.34 41.54 0 48 C-0.99 48.495 -0.99 48.495 -2 49 C-2.33 47.68 -2.66 46.36 -3 45 C-3.2475 45.721875 -3.495 46.44375 -3.75 47.1875 C-5.10983674 50.24713266 -6.82917754 52.4673738 -9 55 C-9.66 54.67 -10.32 54.34 -11 54 C-10.2884375 52.5459375 -10.2884375 52.5459375 -9.5625 51.0625 C-7.71147001 46.80163851 -7.30248407 42.59984394 -7 38 C-9.99332739 38.9977758 -10.94766315 39.7522025 -13 42 C-12.38983051 36.50847458 -12.38983051 36.50847458 -10.5625 34.125 C-9 33 -9 33 -7 33 C-7 32.01 -7 31.02 -7 30 C-7.66 30 -8.32 30 -9 30 C-9 28.68 -9 27.36 -9 26 C-7.68 26 -6.36 26 -5 26 C-5 26.99 -5 27.98 -5 29 C-2.27573689 26.64722731 -1.1858237 24.37503669 0 21 C-0.78375 21.495 -1.5675 21.99 -2.375 22.5 C-5 24 -5 24 -7 24 C-6.94199219 23.32453125 -6.88398437 22.6490625 -6.82421875 21.953125 C-6.68625136 19.22531264 -6.63787181 16.7095709 -7 14 C-9.33830958 11.4595774 -9.33830958 11.4595774 -12 10 C-12 9.34 -12 8.68 -12 8 C-7.545 7.505 -7.545 7.505 -3 7 C-2.01 4.69 -1.02 2.38 0 0 Z " fill="#D35050" transform="translate(58,33)"/>
<path d="M0 0 C12.87 0 25.74 0 39 0 C39 2.64 39 5.28 39 8 C34.05 8 29.1 8 24 8 C24 20.87 24 33.74 24 47 C20.7 47 17.4 47 14 47 C14 34.13 14 21.26 14 8 C9.38 8 4.76 8 0 8 C0 5.36 0 2.72 0 0 Z " fill="#FEFEFE" transform="translate(446,57)"/>
<path d="M0 0 C1.9375 0.8125 1.9375 0.8125 4 2 C4.33 2.99 4.66 3.98 5 5 C5.99 4.34 6.98 3.68 8 3 C10.6875 2.875 10.6875 2.875 13 3 C13 7 13 7 12.4375 9 C11.92649454 11.33602498 12.3923646 12.72136724 13 15 C12.67 15.66 12.34 16.32 12 17 C12.66 17 13.32 17 14 17 C14 18.32 14 19.64 14 21 C14.66 21 15.32 21 16 21 C16.309375 21.639375 16.61875 22.27875 16.9375 22.9375 C17.8345163 24.93610821 17.8345163 24.93610821 19 26 C18.30232558 32.39534884 18.30232558 32.39534884 17 35 C14.93359375 35.4140625 14.93359375 35.4140625 12.4375 35.625 C11.61121094 35.69976562 10.78492188 35.77453125 9.93359375 35.8515625 C9.29550781 35.90054688 8.65742188 35.94953125 8 36 C8.375 34.0625 8.375 34.0625 9 32 C9.66 31.67 10.32 31.34 11 31 C8.69 30.67 6.38 30.34 4 30 C3.67 29.01 3.34 28.02 3 27 C4.98 27 6.96 27 9 27 C9 26.34 9 25.68 9 25 C8.071875 25.061875 7.14375 25.12375 6.1875 25.1875 C3 25 3 25 1.125 23.625 C0 22 0 22 0 20 C1.98 20 3.96 20 6 20 C4.824375 19.566875 4.824375 19.566875 3.625 19.125 C1 18 1 18 -1 16 C-1 15.01 -1 14.02 -1 13 C-0.34 13 0.32 13 1 13 C0.34 12.01 -0.32 11.02 -1 10 C-1 9.01 -1 8.02 -1 7 C2.875 7.875 2.875 7.875 4 9 C4.33 8.34 4.66 7.68 5 7 C2.525 6.01 2.525 6.01 0 5 C0 3.35 0 1.7 0 0 Z " fill="#C07D2A" transform="translate(18,72)"/>
<path d="M0 0 C0.66 0 1.32 0 2 0 C2.66 0.99 3.32 1.98 4 3 C7.08365871 3.2502157 7.08365871 3.2502157 10 3 C9.34 4.32 8.68 5.64 8 7 C7.34 7 6.68 7 6 7 C6.66 8.65 7.32 10.3 8 12 C6.68 12.33 5.36 12.66 4 13 C4 13.66 4 14.32 4 15 C2.125 17.125 2.125 17.125 0 19 C-0.66 19 -1.32 19 -2 19 C-2.103125 19.556875 -2.20625 20.11375 -2.3125 20.6875 C-3.18785132 23.63186352 -4.05190172 25.59734546 -6 28 C-9.375 29.125 -9.375 29.125 -13 29 C-15.9375 26.8125 -15.9375 26.8125 -18 24 C-18 22.68 -18 21.36 -18 20 C-16.02 20.99 -16.02 20.99 -14 22 C-14.33 21.01 -14.66 20.02 -15 19 C-15.03874921 17.33378384 -15.0450286 15.66605828 -15 14 C-13.68 14.66 -12.36 15.32 -11 16 C-11 15.67 -11 15.34 -11 15 C-11 13 -11 11 -11 9 C-10.01 9 -9.02 9 -8 9 C-7.34 7.35 -6.68 5.7 -6 4 C-5.01 4 -4.02 4 -3 4 C-1.9739266 2.68662604 -0.97272675 1.35335895 0 0 Z " fill="#C27D2B" transform="translate(37,45)"/>
<path d="M0 0 C0.33 0.66 0.66 1.32 1 2 C2.27875 1.9175 3.5575 1.835 4.875 1.75 C10.53200096 1.72314715 14.91909076 3.71634224 20 6 C20.99 6.33 21.98 6.66 23 7 C24.75146536 6.04465526 26.50306466 5.08305035 28.18359375 4.0078125 C31.81287194 1.99414847 35.15458247 1.88361293 39.25 1.9375 C40.14203125 1.94652344 41.0340625 1.95554687 41.953125 1.96484375 C42.62859375 1.97644531 43.3040625 1.98804687 44 2 C44.66 3.65 45.32 5.3 46 7 C43.38808113 10.38013031 40.0239008 11.1872982 36 12 C33.20146359 12.26934837 30.43479664 12.28552013 27.625 12.25 C26.852771 12.24395752 26.08054199 12.23791504 25.28491211 12.23168945 C19.6846595 12.13792571 14.13168116 11.77881068 8.5625 11.1875 C7.84723145 11.11756836 7.13196289 11.04763672 6.39501953 10.97558594 C3.42705235 10.61474323 1.39626599 10.3162281 -0.97265625 8.42578125 C-1.31167969 7.95527344 -1.65070312 7.48476562 -2 7 C-1.34 4.69 -0.68 2.38 0 0 Z " fill="#12449C" transform="translate(37,100)"/>
<path d="M0 0 C0.66 0 1.32 0 2 0 C2.495 1.134375 2.99 2.26875 3.5 3.4375 C4.82541249 5.8194007 5.430125 6.8085916 8.046875 7.6875 C10.50160806 8.00182131 10.50160806 8.00182131 14 8 C13 11 13 11 10.953125 12.36328125 C8.7453007 13.84926681 8.7453007 13.84926681 8.609375 16.48046875 C8.65578125 17.37378906 8.7021875 18.26710938 8.75 19.1875 C8.80414063 20.53908203 8.80414063 20.53908203 8.859375 21.91796875 C8.90578125 22.60503906 8.9521875 23.29210937 9 24 C8.40832031 23.74863281 7.81664063 23.49726562 7.20703125 23.23828125 C4.79978156 22.30758275 2.5319463 21.50978785 0 21 C-2.92798943 22.15412336 -2.92798943 22.15412336 -5 24 C-5.66 24 -6.32 24 -7 24 C-6.94199219 23.32453125 -6.88398437 22.6490625 -6.82421875 21.953125 C-6.68625136 19.22531264 -6.63787181 16.7095709 -7 14 C-9.33830958 11.4595774 -9.33830958 11.4595774 -12 10 C-12 9.34 -12 8.68 -12 8 C-7.545 7.505 -7.545 7.505 -3 7 C-2.01 4.69 -1.02 2.38 0 0 Z " fill="#E8E532" transform="translate(58,33)"/>
<path d="M0 0 C0.66 0 1.32 0 2 0 C2 0.66 2 1.32 2 2 C3.32 2 4.64 2 6 2 C5.67 2.99 5.34 3.98 5 5 C4.34 5 3.68 5 3 5 C3 5.66 3 6.32 3 7 C6.10860106 7.9991932 7.88611292 7.83036989 11 7 C11.66 7.33 12.32 7.66 13 8 C12.42655063 10.86724686 12.1385485 11.8614515 10 14 C10.66 14.33 11.32 14.66 12 15 C10.125 18.875 10.125 18.875 9 20 C7.00041636 20.04080783 4.99954746 20.04254356 3 20 C4.98 20.66 6.96 21.32 9 22 C8.67 22.99 8.34 23.98 8 25 C6.865625 25.12375 5.73125 25.2475 4.5625 25.375 C2.7990625 25.684375 2.7990625 25.684375 1 26 C0.67 26.66 0.34 27.32 0 28 C-0.99 27.67 -1.98 27.34 -3 27 C-3.3721042 25.67696283 -3.70630173 24.34262065 -4 23 C-4.66 22.67 -5.32 22.34 -6 22 C-6.33 23.32 -6.66 24.64 -7 26 C-7 24.35 -7 22.7 -7 21 C-6.34 20.67 -5.68 20.34 -5 20 C-4.34786708 17.97536745 -4.34786708 17.97536745 -4 16 C-3.34 16 -2.68 16 -2 16 C-2 14.68 -2 13.36 -2 12 C-1.34 12 -0.68 12 0 12 C-0.165 11.236875 -0.33 10.47375 -0.5 9.6875 C-1.16197275 6.12939648 -0.95109962 3.44773611 0 0 Z " fill="#BA7D34" transform="translate(88,77)"/>
<path d="M0 0 C0.55220215 0.05986084 1.1044043 0.11972168 1.67333984 0.18139648 C9.31240775 0.97993495 16.96341113 1.52989727 24.625 2.0625 C25.91535156 2.15337891 27.20570312 2.24425781 28.53515625 2.33789062 C31.69001495 2.5598992 34.84496096 2.78057179 38 3 C38 4.32 38 5.64 38 7 C35 8 35 8 32 7 C29.58835972 8.94857727 29.58835972 8.94857727 29.9375 12.5625 C29.958125 13.696875 29.97875 14.83125 30 16 C29 17 29 17 26.12890625 17.1328125 C24.95199219 17.13023438 23.77507813 17.12765625 22.5625 17.125 C20.80099609 17.12886719 20.80099609 17.12886719 19.00390625 17.1328125 C16 17 16 17 14 16 C14.33 15.01 14.66 14.02 15 13 C18.96 13 22.92 13 27 13 C27 11.35 27 9.7 27 8 C26.01 8.33 25.02 8.66 24 9 C21.76213183 8.75754106 19.53224066 8.43611971 17.3125 8.0625 C16.13300781 7.86785156 14.95351563 7.67320313 13.73828125 7.47265625 C12.83464844 7.31667969 11.93101563 7.16070312 11 7 C10.67 7.66 10.34 8.32 10 9 C10 7.68 10 6.36 10 5 C8.906875 5.020625 7.81375 5.04125 6.6875 5.0625 C3 5 3 5 0 4 C0 2.68 0 1.36 0 0 Z " fill="#F83234" transform="translate(33,109)"/>
<path d="M0 0 C0 0.66 0 1.32 0 2 C-1.00160156 2.37511719 -2.00320312 2.75023438 -3.03515625 3.13671875 C-10.00578578 5.80244851 -16.09852078 8.33371411 -22 13 C-22.66 13 -23.32 13 -24 13 C-24.33 13.99 -24.66 14.98 -25 16 C-28.04516539 15.66164829 -28.9656495 15.03799373 -31.0625 12.71875 C-34.5161847 9.15783576 -38.79685771 7.56575058 -43.3125 5.6875 C-44.14845703 5.32849609 -44.98441406 4.96949219 -45.84570312 4.59960938 C-47.89282692 3.72227061 -49.94395816 2.85617884 -52 2 C-48.33144767 0.85395389 -46.11873321 1.48647113 -42.43554688 2.49755859 C-37.43612937 3.52891397 -32.33443766 3.32714412 -27.25 3.3125 C-26.1465625 3.32861328 -25.043125 3.34472656 -23.90625 3.36132812 C-17.03408604 3.36536109 -10.96892591 2.52279253 -4.35449219 0.64526367 C-2 0 -2 0 0 0 Z " fill="#0446A5" transform="translate(85,122)"/>
<path d="M0 0 C9.9275998 3.17109528 17.9342189 6.7443286 24.87109375 14.71484375 C25.29519531 14.328125 25.71929687 13.94140625 26.15625 13.54296875 C33.23475415 7.25787935 41.67442687 2.2312801 50.87109375 -0.28515625 C53.234375 0.58203125 53.234375 0.58203125 54.87109375 1.71484375 C51.78848269 3.76991779 49.04142162 4.79409328 45.55859375 6.02734375 C40.35525777 7.97424897 36.87206487 9.93014134 32.87109375 13.71484375 C32.21109375 13.71484375 31.55109375 13.71484375 30.87109375 13.71484375 C30.62359375 14.29234375 30.37609375 14.86984375 30.12109375 15.46484375 C28.70382118 18.01593437 26.95927088 19.69457482 24.87109375 21.71484375 C24.4328125 21.06257813 23.99453125 20.4103125 23.54296875 19.73828125 C18.28813439 12.49686316 13.0813169 9.07452586 4.87109375 5.71484375 C3.88367187 5.30234375 2.89625 4.88984375 1.87890625 4.46484375 C-0.44648511 3.51624218 -2.77837349 2.59889368 -5.12890625 1.71484375 C-2.12890625 -0.28515625 -2.12890625 -0.28515625 0 0 Z " fill="#3CD82B" transform="translate(33.12890625,126.28515625)"/>
<path d="M0 0 C2.14729141 0.28073073 4.29283193 0.57488499 6.4375 0.875 C7.63246094 1.03742188 8.82742187 1.19984375 10.05859375 1.3671875 C11.51458984 1.68042969 11.51458984 1.68042969 13 2 C13.33 2.66 13.66 3.32 14 4 C14.65226562 3.98839844 15.30453125 3.97679688 15.9765625 3.96484375 C20.7761914 3.91529006 25.27784685 4.00586249 30 5 C30 6.65 30 8.3 30 10 C29.14535156 10.04898438 28.29070313 10.09796875 27.41015625 10.1484375 C26.30542969 10.22320312 25.20070313 10.29796875 24.0625 10.375 C22.96035156 10.44460937 21.85820313 10.51421875 20.72265625 10.5859375 C19.37494141 10.79089844 19.37494141 10.79089844 18 11 C17.67 11.66 17.34 12.32 17 13 C17.66 13.33 18.32 13.66 19 14 C13.49191603 13.40984815 8.35121931 12.43336231 3 11 C2.67 11.66 2.34 12.32 2 13 C1.34 11.68 0.68 10.36 0 9 C2.64 9 5.28 9 8 9 C7.65213292 7.02463255 7.65213292 7.02463255 7 5 C6.34 4.67 5.68 4.34 5 4 C4.67 4.33 4.34 4.66 4 5 C2.32457024 4.71395102 0.65614657 4.38218767 -1 4 C-0.67 2.68 -0.34 1.36 0 0 Z " fill="#E53437" transform="translate(30,112)"/>
<path d="M0 0 C0 7.59 0 15.18 0 23 C-0.66 23.33 -1.32 23.66 -2 24 C-2.33 22.68 -2.66 21.36 -3 20 C-3.2475 20.721875 -3.495 21.44375 -3.75 22.1875 C-5.10983674 25.24713266 -6.82917754 27.4673738 -9 30 C-9.66 29.67 -10.32 29.34 -11 29 C-10.2884375 27.5459375 -10.2884375 27.5459375 -9.5625 26.0625 C-7.71147001 21.80163851 -7.30248407 17.59984394 -7 13 C-9.99332739 13.9977758 -10.94766315 14.7522025 -13 17 C-12.38983051 11.50847458 -12.38983051 11.50847458 -10.5625 9.125 C-9 8 -9 8 -7 8 C-7 7.01 -7 6.02 -7 5 C-7.66 5 -8.32 5 -9 5 C-9 3.68 -9 2.36 -9 1 C-7.68 1 -6.36 1 -5 1 C-5 1.99 -5 2.98 -5 4 C-4.360625 3.34 -3.72125 2.68 -3.0625 2 C-1 0 -1 0 0 0 Z " fill="#D5504D" transform="translate(58,58)"/>
<path d="M0 0 C2.5625 1.375 2.5625 1.375 5 4 C5.15019141 7.42221863 4.64674116 10.64463 4 14 C4.78375 13.505 5.5675 13.01 6.375 12.5 C9 11 9 11 11 11 C10.1875 14.4375 10.1875 14.4375 9 18 C8.01 18.33 7.02 18.66 6 19 C6 18.01 6 17.02 6 16 C4.68 16 3.36 16 2 16 C2 17.32 2 18.64 2 20 C2.66 20 3.32 20 4 20 C4 20.99 4 21.98 4 23 C3.01 22.67 2.02 22.34 1 22 C0.67 21.34 0.34 20.68 0 20 C-0.99 19.67 -1.98 19.34 -3 19 C-4.1875 16.9375 -4.1875 16.9375 -5 15 C-5.33 15.66 -5.66 16.32 -6 17 C-6.33 16.01 -6.66 15.02 -7 14 C-5.35 14 -3.7 14 -2 14 C-2.66 12.35 -3.32 10.7 -4 9 C-2.68 7.68 -1.36 6.36 0 5 C-1.32 4.67 -2.64 4.34 -4 4 C-2.68 3.67 -1.36 3.34 0 3 C0 2.01 0 1.02 0 0 Z " fill="#144B9D" transform="translate(47,43)"/>
<path d="M0 0 C0.69609375 0.20753906 1.3921875 0.41507812 2.109375 0.62890625 C3.69149073 0.69439117 5.27607581 0.71469006 6.859375 0.69140625 C8.05820313 0.67787109 8.05820313 0.67787109 9.28125 0.6640625 C10.18617187 0.64666016 10.18617187 0.64666016 11.109375 0.62890625 C13.234375 5.25390625 13.234375 5.25390625 12.109375 8.62890625 C6.36579963 10.57761932 1.13622717 10.88002509 -4.890625 10.62890625 C-4.97159303 9.17148162 -5.02980274 7.71277818 -5.078125 6.25390625 C-5.11292969 5.44179687 -5.14773437 4.6296875 -5.18359375 3.79296875 C-5.08691406 3.07882813 -4.99023438 2.3646875 -4.890625 1.62890625 C-1.890625 -0.37109375 -1.890625 -0.37109375 0 0 Z " fill="#EE3338" transform="translate(66.890625,115.37109375)"/>
<path d="M0 0 C0.99 0.33 1.98 0.66 3 1 C3.6875 3.0625 3.6875 3.0625 4 5 C5.423125 4.938125 5.423125 4.938125 6.875 4.875 C10 5 10 5 12 7 C9.8614515 9.1385485 8.86724686 9.42655063 6 10 C5.67 11.65 5.34 13.3 5 15 C4.01 14.67 3.02 14.34 2 14 C1.67 14.66 1.34 15.32 1 16 C-1.72265625 16.4140625 -1.72265625 16.4140625 -5.0625 16.625 C-6.16722656 16.69976562 -7.27195312 16.77453125 -8.41015625 16.8515625 C-9.26480469 16.90054688 -10.11945313 16.94953125 -11 17 C-11 15.68 -11 14.36 -11 13 C-10.28972656 12.74605469 -9.57945313 12.49210937 -8.84765625 12.23046875 C-7.92855469 11.88628906 -7.00945312 11.54210937 -6.0625 11.1875 C-5.14597656 10.85105469 -4.22945313 10.51460937 -3.28515625 10.16796875 C-0.6659576 9.16590906 -0.6659576 9.16590906 0 6 C0.03920815 4.00038436 0.04443347 1.99950636 0 0 Z " fill="#F33235" transform="translate(82,99)"/>
<path d="M0 0 C3.96 0.33 7.92 0.66 12 1 C11.67 1.66 11.34 2.32 11 3 C10.34 3 9.68 3 9 3 C8.67 3.66 8.34 4.32 8 5 C8.99 5.33 9.98 5.66 11 6 C11.66 4.68 12.32 3.36 13 2 C13.99 2 14.98 2 16 2 C15.25 4.9375 15.25 4.9375 14 8 C11.875 8.875 11.875 8.875 10 9 C10.33 9.66 10.66 10.32 11 11 C11.66 10.34 12.32 9.68 13 9 C13.99 9 14.98 9 16 9 C15.67 10.65 15.34 12.3 15 14 C9.58461538 16.21538462 9.58461538 16.21538462 6.625 15.125 C6.08875 14.75375 5.5525 14.3825 5 14 C5.33 13.01 5.66 12.02 6 11 C6.66 11 7.32 11 8 11 C8.33 10.34 8.66 9.68 9 9 C7.68 9 6.36 9 5 9 C5 8.34 5 7.68 5 7 C4.01 7 3.02 7 2 7 C1.7834375 5.824375 1.7834375 5.824375 1.5625 4.625 C1.12201075 2.03578982 1.12201075 2.03578982 0 0 Z " fill="#DE8416" transform="translate(85,70)"/>
<path d="M0 0 C3.625 0.8125 3.625 0.8125 6.3125 2.4375 C8.4556649 4.00674694 8.4556649 4.00674694 10.5625 3.6875 C12.82014684 2.76826459 12.82014684 2.76826459 15.625 1.1875 C18.625 -0.1875 18.625 -0.1875 20.75 0.0625 C21.36875 0.31 21.9875 0.5575 22.625 0.8125 C23.3675 0.998125 24.11 1.18375 24.875 1.375 C25.4525 1.519375 26.03 1.66375 26.625 1.8125 C26.625 2.4725 26.625 3.1325 26.625 3.8125 C25.96113281 3.92207031 25.29726562 4.03164062 24.61328125 4.14453125 C18.97009805 5.12619623 18.97009805 5.12619623 13.8125 7.5 C11.625 8.8125 11.625 8.8125 9.1875 8.6875 C6.625 7.8125 6.625 7.8125 3.8125 6.3125 C-0.05708739 4.4915177 -3.1327668 4.17820976 -7.375 3.8125 C-5.58871137 0.23992273 -3.85232258 -0.21401792 0 0 Z " fill="#061C47" transform="translate(49.375,97.1875)"/>
<path d="M0 0 C6.94989552 -0.51480708 11.69234563 1.21029141 18 4 C18.99 4.33 19.98 4.66 21 5 C22.78648315 4.02555464 24.57074535 3.0444976 26.3125 1.9921875 C30.66034378 -0.56418361 35.09108169 -0.08181531 40 0 C40.495 0.99 40.495 0.99 41 2 C24.87748718 7.07560589 15.18189789 7.01312399 -1 2 C-0.67 1.34 -0.34 0.68 0 0 Z " fill="#020816" transform="translate(39,102)"/>
<path d="M0 0 C0.598125 0.309375 1.19625 0.61875 1.8125 0.9375 C6.03297614 2.98744555 8.45324661 2.90935068 13 2 C11.125 5.875 11.125 5.875 10 7 C8.00041636 7.04080783 5.99954746 7.04254356 4 7 C5.98 7.66 7.96 8.32 10 9 C9.67 9.99 9.34 10.98 9 12 C2.25 13 2.25 13 0 13 C-1.85776765 9.86501708 -2.20140476 7.62528568 -2 4 C-1.34 4 -0.68 4 0 4 C0 2.68 0 1.36 0 0 Z " fill="#DD8414" transform="translate(87,90)"/>
<path d="M0 0 C0.66 0 1.32 0 2 0 C2.66 0.99 3.32 1.98 4 3 C7.08365871 3.2502157 7.08365871 3.2502157 10 3 C9.34 4.32 8.68 5.64 8 7 C7.34 7 6.68 7 6 7 C6.66 8.65 7.32 10.3 8 12 C6.68 12.33 5.36 12.66 4 13 C4 13.66 4 14.32 4 15 C1.69 15 -0.62 15 -3 15 C-3.66 13.68 -4.32 12.36 -5 11 C-3.02 11 -1.04 11 1 11 C0.505 10.443125 0.01 9.88625 -0.5 9.3125 C-2.26924708 6.58491075 -2.4199362 5.19151509 -2 2 C-1.34 1.34 -0.68 0.68 0 0 Z " fill="#DF8517" transform="translate(37,45)"/>
<path d="M0 0 C0.66 0 1.32 0 2 0 C2.268125 0.78375 2.53625 1.5675 2.8125 2.375 C3.84814432 5.28114923 3.84814432 5.28114923 7 7 C6.34 8.65 5.68 10.3 5 12 C6.65 12 8.3 12 10 12 C9.01 13.485 9.01 13.485 8 15 C8 14.34 8 13.68 8 13 C6.02 13 4.04 13 2 13 C2 14.98 2 16.96 2 19 C1.34 18.67 0.68 18.34 0 18 C0.33 16.68 0.66 15.36 1 14 C-0.98 14.66 -2.96 15.32 -5 16 C-7 13 -7 13 -6.625 10.8125 C-6.41875 10.214375 -6.2125 9.61625 -6 9 C-4.68 9.66 -3.36 10.32 -2 11 C-2.02320312 10.37351562 -2.04640625 9.74703125 -2.0703125 9.1015625 C-2.09738281 7.87566406 -2.09738281 7.87566406 -2.125 6.625 C-2.14820312 5.81289063 -2.17140625 5.00078125 -2.1953125 4.1640625 C-2 2 -2 2 0 0 Z " fill="#0F4A9B" transform="translate(68,45)"/>
<path d="M0 0 C0.33 0 0.66 0 1 0 C1.07476562 0.6084375 1.14953125 1.216875 1.2265625 1.84375 C2.14441803 7.96278689 3.79435584 13.40229781 6.0625 19.125 C8.3196694 24.82562758 9.77885325 29.80789111 10 36 C9.67 36 9.34 36 9 36 C8.67 38.64 8.34 41.28 8 44 C7.67 44 7.34 44 7 44 C6.96132812 42.90945312 6.96132812 42.90945312 6.921875 41.796875 C6.42771985 33.03685181 4.48693926 25.3393712 0.77734375 17.375 C-2.18420479 10.94994554 -2.12511822 6.74868623 0 0 Z " fill="#39D527" transform="translate(107,55)"/>
<path d="M0 0 C0.33 0 0.66 0 1 0 C1.33 4.62 1.66 9.24 2 14 C2.66 13.67 3.32 13.34 4 13 C4.45439453 13.97839844 4.45439453 13.97839844 4.91796875 14.9765625 C8.99343131 23.47860439 13.11364036 28.74242691 21 34 C20.01 34.99 19.02 35.98 18 37 C2.78650487 24.01140337 2.78650487 24.01140337 0 15 C-0.13710218 12.35392791 -0.19062972 9.82530987 -0.125 7.1875 C-0.11597656 6.49462891 -0.10695312 5.80175781 -0.09765625 5.08789062 C-0.07426157 3.39177605 -0.03839641 1.69584129 0 0 Z " fill="#35D823" transform="translate(0,87)"/>
<path d="M0 0 C1.9375 0.8125 1.9375 0.8125 4 2 C4.33 2.99 4.66 3.98 5 5 C5.99 4.34 6.98 3.68 8 3 C10.6875 2.875 10.6875 2.875 13 3 C12.67 3.99 12.34 4.98 12 6 C10.02 6.33 8.04 6.66 6 7 C6.33 7.66 6.66 8.32 7 9 C7.99 9.33 8.98 9.66 10 10 C9.67 10.99 9.34 11.98 9 13 C2.539801 13.36567164 2.539801 13.36567164 0.0625 11.6875 C-1 10 -1 10 -1 7 C2.875 7.875 2.875 7.875 4 9 C4.33 8.34 4.66 7.68 5 7 C2.525 6.01 2.525 6.01 0 5 C0 3.35 0 1.7 0 0 Z " fill="#E18513" transform="translate(18,72)"/>
<path d="M0 0 C0.33 0 0.66 0 1 0 C1.02505615 0.59949463 1.0501123 1.19898926 1.07592773 1.81665039 C1.19285773 4.56543324 1.31513947 7.31395375 1.4375 10.0625 C1.47681641 11.00544922 1.51613281 11.94839844 1.55664062 12.91992188 C1.78725396 18.01115478 2.1699127 22.97064756 3 28 C1.02 28 -0.96 28 -3 28 C-3.66 24.7 -4.32 21.4 -5 18 C-4.34 17.67 -3.68 17.34 -3 17 C-2.67 18.32 -2.34 19.64 -2 21 C-1.97494385 20.43490723 -1.9498877 19.86981445 -1.92407227 19.28759766 C-1.80820044 16.73316258 -1.68543463 14.1791045 -1.5625 11.625 C-1.52318359 10.73554687 -1.48386719 9.84609375 -1.44335938 8.9296875 C-1.40146484 8.07890625 -1.35957031 7.228125 -1.31640625 6.3515625 C-1.27974854 5.56604004 -1.24309082 4.78051758 -1.20532227 3.97119141 C-1 2 -1 2 0 0 Z " fill="#244F9D" transform="translate(59,60)"/>
<path d="M0 0 C0.66 0.33 1.32 0.66 2 1 C2 10 2 10 1 13 C-1.64 13 -4.28 13 -7 13 C-7 12.34 -7 11.68 -7 11 C-7.99 10.67 -8.98 10.34 -10 10 C-10.66 9.01 -11.32 8.02 -12 7 C-10.9275 6.71125 -9.855 6.4225 -8.75 6.125 C-4.68670746 4.94370381 -4.68670746 4.94370381 -1 3 C-0.67 2.01 -0.34 1.02 0 0 Z " fill="#AE7935" transform="translate(90,53)"/>
<path d="M0 0 C1.45792884 -0.05399736 2.91642712 -0.09279177 4.375 -0.125 C5.18710938 -0.14820312 5.99921875 -0.17140625 6.8359375 -0.1953125 C9 0 9 0 11 2 C11.99 2.33 12.98 2.66 14 3 C14.33 4.65 14.66 6.3 15 8 C13.41753293 8.08153933 11.83383727 8.13943557 10.25 8.1875 C9.36828125 8.22230469 8.4865625 8.25710937 7.578125 8.29296875 C4.50382614 7.94361661 3.21067243 7.13028434 1 5 C0.25 2.3125 0.25 2.3125 0 0 Z " fill="#EF3737" transform="translate(84,121)"/>
<path d="M0 0 C2.14729141 0.28073073 4.29283193 0.57488499 6.4375 0.875 C7.63246094 1.03742188 8.82742187 1.19984375 10.05859375 1.3671875 C11.51458984 1.68042969 11.51458984 1.68042969 13 2 C13.33 2.66 13.66 3.32 14 4 C15.98 4 17.96 4 20 4 C20 5.65 20 7.3 20 9 C15.54702569 9.2120464 12.12606298 8.72718916 8 7 C7.67 6.34 7.34 5.68 7 5 C6.34 4.67 5.68 4.34 5 4 C4.67 4.33 4.34 4.66 4 5 C2.32457024 4.71395102 0.65614657 4.38218767 -1 4 C-0.67 2.68 -0.34 1.36 0 0 Z " fill="#831F20" transform="translate(30,112)"/>
<path d="M0 0 C2.95929119 2.75520215 5.03681826 5.46627288 7 9 C4.69 8.67 2.38 8.34 0 8 C1.66954819 11.22404978 1.66954819 11.22404978 4.625 11.6875 C5.40875 11.790625 6.1925 11.89375 7 12 C4 14 4 14 1.95703125 13.7578125 C-0.02864583 13.171875 -2.01432292 12.5859375 -4 12 C-4 10.68 -4 9.36 -4 8 C-4.66 8 -5.32 8 -6 8 C-5.67 7.01 -5.34 6.02 -5 5 C-4.34 5.33 -3.68 5.66 -3 6 C-2.690625 5.195625 -2.38125 4.39125 -2.0625 3.5625 C-1 1 -1 1 0 0 Z " fill="#A5763D" transform="translate(32,48)"/>
<path d="M0 0 C0.66 0.33 1.32 0.66 2 1 C1.67 1.99 1.34 2.98 1 4 C4.3 3.67 7.6 3.34 11 3 C11.33 3.66 11.66 4.32 12 5 C10.68 5 9.36 5 8 5 C8 5.99 8 6.98 8 8 C7.01 8 6.02 8 5 8 C5.33 8.99 5.66 9.98 6 11 C4.35 11 2.7 11 1 11 C1 12.65 1 14.3 1 16 C0.34 16 -0.32 16 -1 16 C-1.02685095 13.52076199 -1.04676547 11.0418116 -1.0625 8.5625 C-1.07506836 7.50192383 -1.07506836 7.50192383 -1.08789062 6.41992188 C-1.09653588 4.61306441 -1.05220011 2.80612397 -1 1 C-0.67 0.67 -0.34 0.34 0 0 Z " fill="#DC3A34" transform="translate(25,104)"/>
<path d="M0 0 C1.8125 0.375 1.8125 0.375 4 1 C5.99963028 1.03845443 8.00051633 1.04544281 10 1 C10.66 2.32 11.32 3.64 12 5 C11 6 11 6 7.5625 6.125 C4 6 4 6 2 5 C2 5.66 2 6.32 2 7 C0.35 7 -1.3 7 -3 7 C-3.1875 4.625 -3.1875 4.625 -3 2 C-2.01 1.34 -1.02 0.68 0 0 Z " fill="#851E1E" transform="translate(65,115)"/>
<path d="M0 0 C0.66 1.32 1.32 2.64 2 4 C1.38125 4.28875 0.7625 4.5775 0.125 4.875 C-2.13325765 5.93720042 -2.13325765 5.93720042 -4 8 C-4 8.99 -4 9.98 -4 11 C-5.32 11 -6.64 11 -8 11 C-8.33 8.69 -8.66 6.38 -9 4 C-9.99 3.67 -10.98 3.34 -12 3 C-10.7625 2.87625 -9.525 2.7525 -8.25 2.625 C-5.1237803 2.24253695 -2.71120763 1.69450477 0 0 Z " fill="#AE272B" transform="translate(87,112)"/>
<path d="M0 0 C0.66 0.33 1.32 0.66 2 1 C1.67 1.66 1.34 2.32 1 3 C1.66 3 2.32 3 3 3 C3 6.63 3 10.26 3 14 C3.66 14 4.32 14 5 14 C3.62845496 16.95409701 2.01136276 19.44008376 0 22 C-0.66 21.67 -1.32 21.34 -2 21 C-1.2884375 19.5459375 -1.2884375 19.5459375 -0.5625 18.0625 C1.28852999 13.80163851 1.69751593 9.59984394 2 5 C-0.99332739 5.9977758 -1.94766315 6.7522025 -4 9 C-3.38461538 3.46153846 -3.38461538 3.46153846 -1.4375 1.125 C-0.963125 0.75375 -0.48875 0.3825 0 0 Z " fill="#A05970" transform="translate(49,66)"/>
<path d="M0 0 C17.16 0.33 34.32 0.66 52 1 C52 1.33 52 1.66 52 2 C51.38025803 2.01030746 50.76051605 2.02061493 50.12199402 2.03123474 C43.68205136 2.13926606 37.24224957 2.25386691 30.80249023 2.37231445 C28.39789777 2.41567409 25.99327431 2.4573484 23.58862305 2.49731445 C20.13580984 2.55499189 16.68315281 2.61869385 13.23046875 2.68359375 C12.15226364 2.70030624 11.07405853 2.71701874 9.96318054 2.73423767 C8.96236954 2.75418289 7.96155853 2.77412811 6.93041992 2.79467773 C5.60804573 2.81799416 5.60804573 2.81799416 4.25895691 2.84178162 C1.8322892 2.9174752 1.8322892 2.9174752 -1 4 C-0.67 2.68 -0.34 1.36 0 0 Z " fill="#35E222" transform="translate(21,23)"/>
<path d="M0 0 C0.556875 0.37125 1.11375 0.7425 1.6875 1.125 C-1.42537418 3.20024945 -4.31767888 4.36907086 -7.8125 5.6875 C-8.9571875 6.12191406 -10.101875 6.55632812 -11.28125 7.00390625 C-13.2800458 7.74315161 -15.29074296 8.45108099 -17.3125 9.125 C-15.94623338 5.77589516 -14.78299321 4.49398162 -11.5 3 C-10.78714844 2.67515625 -10.07429688 2.3503125 -9.33984375 2.015625 C-8.67082031 1.72171875 -8.00179687 1.4278125 -7.3125 1.125 C-5.95125 0.444375 -5.95125 0.444375 -4.5625 -0.25 C-2.3125 -0.875 -2.3125 -0.875 0 0 Z " fill="#3CE128" transform="translate(86.3125,126.875)"/>
<path d="M0 0 C0.99 0.33 1.98 0.66 3 1 C4.10048457 6.10298771 3.94251169 10.72081849 3.5625 15.875 C3.51029297 16.65875 3.45808594 17.4425 3.40429688 18.25 C3.27571149 20.1670912 3.13871383 22.08361503 3 24 C3.99 24.33 4.98 24.66 6 25 C5.34 25 4.68 25 4 25 C3.67 26.32 3.34 27.64 3 29 C1.46891939 27.46891939 1.82056058 26.01853515 1.75390625 23.88671875 C1.72103516 23.05076172 1.68816406 22.21480469 1.65429688 21.35351562 C1.59350649 19.58800762 1.53616738 17.82237713 1.48242188 16.05664062 C1.44826172 15.21681641 1.41410156 14.37699219 1.37890625 13.51171875 C1.34132202 12.35869263 1.34132202 12.35869263 1.30297852 11.18237305 C0.9685069 8.77315322 0.08681787 7.15553603 -1 5 C-0.625 2.25 -0.625 2.25 0 0 Z " fill="#A15971" transform="translate(58,53)"/>
<path d="M0 0 C7.55473184 0.88138538 7.55473184 0.88138538 9.87695312 1.5 C11.99304228 1.99836138 13.9409992 2.20141662 16.109375 2.31640625 C17.24052734 2.37924805 17.24052734 2.37924805 18.39453125 2.44335938 C19.56048828 2.50233398 19.56048828 2.50233398 20.75 2.5625 C21.93916016 2.62727539 21.93916016 2.62727539 23.15234375 2.69335938 C25.10137815 2.79902991 27.05066748 2.89997966 29 3 C29 3.33 29 3.66 29 4 C24.38 4 19.76 4 15 4 C15.33 4.99 15.66 5.98 16 7 C10.53262809 5.25192871 5.24175152 3.34205919 0 1 C0 0.67 0 0.34 0 0 Z " fill="#32418E" transform="translate(33,123)"/>
<path d="M0 0 C0.99 0.66 1.98 1.32 3 2 C4.65549531 2.38499891 6.3222433 2.72793135 8 3 C8 3.66 8 4.32 8 5 C6.3125 5.75 6.3125 5.75 4 6 C1.25 4.0625 1.25 4.0625 -1 2 C-1 3.32 -1 4.64 -1 6 C-1.66 6 -2.32 6 -3 6 C-2.01 9.63 -1.02 13.26 0 17 C-0.99 16.67 -1.98 16.34 -3 16 C-3.3721042 14.67696283 -3.70630173 13.34262065 -4 12 C-4.66 11.67 -5.32 11.34 -6 11 C-6.33 12.32 -6.66 13.64 -7 15 C-7 13.35 -7 11.7 -7 10 C-6.34 9.67 -5.68 9.34 -5 9 C-4.34786708 6.97536745 -4.34786708 6.97536745 -4 5 C-3.34 5 -2.68 5 -2 5 C-2 3.68 -2 2.36 -2 1 C-1.34 0.67 -0.68 0.34 0 0 Z " fill="#997246" transform="translate(88,88)"/>
<path d="M0 0 C-0.185625 0.5775 -0.37125 1.155 -0.5625 1.75 C-1.04023546 4.20692525 -0.75729364 5.64397534 0 8 C-0.33 7.34 -0.66 6.68 -1 6 C-2.32 6.33 -3.64 6.66 -5 7 C-5 7.66 -5 8.32 -5 9 C-9.455 8.01 -9.455 8.01 -14 7 C-10.3558226 4.5705484 -8.28758728 4.83820425 -4 5 C-4 4.34 -4 3.68 -4 3 C-4.99 3 -5.98 3 -7 3 C-7 2.01 -7 1.02 -7 0 C-3.98968256 -0.93423645 -3.13349732 -1.04449911 0 0 Z " fill="#B87C31" transform="translate(31,79)"/>
<path d="M0 0 C1.98 0 3.96 0 6 0 C6 0.66 6 1.32 6 2 C9.60992379 1.34414811 9.60992379 1.34414811 13 0 C12.42655063 2.86724686 12.1385485 3.8614515 10 6 C6.375 6.125 6.375 6.125 3 6 C3 5.34 3 4.68 3 4 C1.68 3.67 0.36 3.34 -1 3 C-0.67 2.01 -0.34 1.02 0 0 Z " fill="#E5840C" transform="translate(74,54)"/>
<path d="M0 0 C0.99 0.33 1.98 0.66 3 1 C3.6875 3.0625 3.6875 3.0625 4 5 C4.94875 4.95875 5.8975 4.9175 6.875 4.875 C10 5 10 5 12 7 C10 9 10 9 7 9.1875 C4 9 4 9 2 8 C2 7.34 2 6.68 2 6 C1.34 6 0.68 6 0 6 C0 4.02 0 2.04 0 0 Z " fill="#E4830F" transform="translate(82,99)"/>
<path d="M0 0 C0.33 0 0.66 0 1 0 C0.25 6.75 0.25 6.75 -2 9 C-6.05261287 9.34490322 -7.54754176 9.30163882 -11 7 C-11 6.34 -11 5.68 -11 5 C-9.1128125 5.1546875 -9.1128125 5.1546875 -7.1875 5.3125 C-5.00594491 5.39602953 -5.00594491 5.39602953 -3 5 C-0.99135641 2.6273026 -0.99135641 2.6273026 0 0 Z " fill="#DE8415" transform="translate(32,94)"/>
<path d="M0 0 C-0.57344937 2.86724686 -0.8614515 3.8614515 -3 6 C-9.20512821 6.56410256 -9.20512821 6.56410256 -11.9375 4.625 C-13 3 -13 3 -13 1 C-9.87709365 1.48578543 -7.00419641 1.9986012 -4 3 C-4 2.34 -4 1.68 -4 1 C-2 0 -2 0 0 0 Z " fill="#E28512" transform="translate(30,85)"/>
<path d="M0 0 C0.99 0.5259375 0.99 0.5259375 2 1.0625 C6.0513091 2.32853409 8.83374555 1.70614482 13 1 C11.125 4.875 11.125 4.875 10 6 C3.6899841 6.46740859 3.6899841 6.46740859 1.0625 4.6875 C0 3 0 3 0 0 Z " fill="#DC8517" transform="translate(88,85)"/>
<path d="M0 0 C0.66 0 1.32 0 2 0 C2.125 5.75 2.125 5.75 1 8 C-1.06640625 8.4140625 -1.06640625 8.4140625 -3.5625 8.625 C-4.80193359 8.73714844 -4.80193359 8.73714844 -6.06640625 8.8515625 C-7.02353516 8.92503906 -7.02353516 8.92503906 -8 9 C-7.67 7.68 -7.34 6.36 -7 5 C-5.35 5 -3.7 5 -2 5 C-1.34 3.35 -0.68 1.7 0 0 Z " fill="#E5840F" transform="translate(34,99)"/>
<path d="M0 0 C3 1 3 1 4 3 C6.52733235 3.65555119 6.52733235 3.65555119 9 4 C8.67 4.99 8.34 5.98 8 7 C5.69 7.33 3.38 7.66 1 8 C0.67 5.36 0.34 2.72 0 0 Z " fill="#BE7C2D" transform="translate(88,95)"/>
<path d="M0 0 C2.02350324 3.03525486 2.32124018 4.19426202 2.625 7.6875 C2.69976562 8.49574219 2.77453125 9.30398437 2.8515625 10.13671875 C2.92503906 11.05904297 2.92503906 11.05904297 3 12 C2.67 12 2.34 12 2 12 C1.67 14.64 1.34 17.28 1 20 C0.67 20 0.34 20 0 20 C-0.06058594 19.20335938 -0.12117188 18.40671875 -0.18359375 17.5859375 C-0.79667866 9.75667303 -0.79667866 9.75667303 -2 2 C-1.34 2 -0.68 2 0 2 C0 1.34 0 0.68 0 0 Z " fill="#48DA38" transform="translate(114,79)"/>
<path d="M0 0 C0.66 0 1.32 0 2 0 C2 1.32 2 2.64 2 4 C5.3 4.66 8.6 5.32 12 6 C11.67 6.66 11.34 7.32 11 8 C8.03 8 5.06 8 2 8 C0 4 0 4 0 0 Z " fill="#DE8415" transform="translate(26,56)"/>
<path d="M0 0 C2.95929119 2.75520215 5.03681826 5.46627288 7 9 C4.36 9 1.72 9 -1 9 C-1.09765625 2.84765625 -1.09765625 2.84765625 -1 1 C-0.67 0.67 -0.34 0.34 0 0 Z " fill="#AD742E" transform="translate(32,48)"/>
<path d="M0 0 C0.99 0 1.98 0 3 0 C3.309375 0.639375 3.61875 1.27875 3.9375 1.9375 C4.8345163 3.93610821 4.8345163 3.93610821 6 5 C6.04063832 6.66617115 6.042721 8.33388095 6 10 C5.67 8.68 5.34 7.36 5 6 C2.2160817 7.39195915 2.02101003 9.15575779 1 12 C-0.2380014 8.42355152 0.25073929 5.66305234 1 2 C0.54625 2.825 0.0925 3.65 -0.375 4.5 C-0.91125 5.325 -1.4475 6.15 -2 7 C-2.66 7 -3.32 7 -4 7 C-2.92598892 4.08482708 -2.22189824 2.22189824 0 0 Z " fill="#A3733B" transform="translate(31,93)"/>
<path d="M0 0 C0.33 0 0.66 0 1 0 C1.12117188 0.88042969 1.24234375 1.76085937 1.3671875 2.66796875 C1.53476563 3.82941406 1.70234375 4.99085937 1.875 6.1875 C2.03742188 7.33605469 2.19984375 8.48460938 2.3671875 9.66796875 C2.94060245 12.68724625 3.74759043 15.20575848 5 18 C2.10801107 17.00276244 0.98165873 15.97554497 -0.875 13.5 C-2.44701324 8.60929215 -1.33473642 4.85882466 0 0 Z " fill="#B65563" transform="translate(66,70)"/>
<path d="M0 0 C0 0.66 0 1.32 0 2 C-1.55780332 2.67756882 -3.12150096 3.34159457 -4.6875 4 C-5.99267578 4.556875 -5.99267578 4.556875 -7.32421875 5.125 C-10.0572002 6.01870488 -12.14700934 6.16449676 -15 6 C-14.67 5.01 -14.34 4.02 -14 3 C-11.34765625 2.05078125 -11.34765625 2.05078125 -8.0625 1.3125 C-6.98097656 1.06113281 -5.89945313 0.80976562 -4.78515625 0.55078125 C-2 0 -2 0 0 0 Z " fill="#1A4596" transform="translate(85,122)"/>
<path d="M0 0 C2.97 0 5.94 0 9 0 C9 1.65 9 3.3 9 5 C6.03 4.67 3.06 4.34 0 4 C0 2.68 0 1.36 0 0 Z " fill="#821E20" transform="translate(51,117)"/>
<path d="M0 0 C0.680625 0.680625 1.36125 1.36125 2.0625 2.0625 C4.92796986 4.36860641 4.92796986 4.36860641 8.6875 3.8125 C11.85351313 3.16543797 11.85351313 3.16543797 14 2 C13.67 3.65 13.34 5.3 13 7 C12.071875 6.979375 11.14375 6.95875 10.1875 6.9375 C6.97713989 6.84230396 6.97713989 6.84230396 4 8 C2.35 6.35 0.7 4.7 -1 3 C-1.33 4.32 -1.66 5.64 -2 7 C-2 5.35 -2 3.7 -2 2 C-1.34 2 -0.68 2 0 2 C0 1.34 0 0.68 0 0 Z " fill="#5C595A" transform="translate(19,69)"/>
<path d="M0 0 C0.66 0 1.32 0 2 0 C1.67 1.98 1.34 3.96 1 6 C-3.82360189 6.19294408 -7.49646738 5.75747614 -12 4 C-10 3 -10 3 -6.5625 3.125 C-3.06582906 3.36503882 -3.06582906 3.36503882 -1.1875 1.5 C-0.795625 1.005 -0.40375 0.51 0 0 Z " fill="#B7782D" transform="translate(97,65)"/>
<path d="M0 0 C0.66 0.33 1.32 0.66 2 1 C3.99960012 1.039992 6.00047242 1.04346799 8 1 C7.34 2.32 6.68 3.64 6 5 C5.34 5 4.68 5 4 5 C3.67 5.66 3.34 6.32 3 7 C1.68 6.67 0.36 6.34 -1 6 C-0.67 4.02 -0.34 2.04 0 0 Z " fill="#BE7923" transform="translate(39,47)"/>
<path d="M0 0 C2.31 0.66 4.62 1.32 7 2 C7 2.66 7 3.32 7 4 C7.66 4 8.32 4 9 4 C9 5.98 9 7.96 9 10 C8.34 9.67 7.68 9.34 7 9 C7.33 7.68 7.66 6.36 8 5 C6.02 5.66 4.04 6.32 2 7 C0 4 0 4 0 0 Z " fill="#205096" transform="translate(61,54)"/>
<path d="M0 0 C1 4 1 4 -0.8125 7.1875 C-3 10 -3 10 -5 11 C-5.99 10.34 -6.98 9.68 -8 9 C-5.36 6.03 -2.72 3.06 0 0 Z " fill="#46D938" transform="translate(20,23)"/>
<path d="M0 0 C0.33 0 0.66 0 1 0 C1.33 4.62 1.66 9.24 2 14 C2.66 13.67 3.32 13.34 4 13 C4.625 15.3125 4.625 15.3125 5 18 C4.34 18.99 3.68 19.98 3 21 C0.20558799 16.29130574 -0.39036978 12.49324646 -0.1875 7.125 C-0.17396484 6.43664062 -0.16042969 5.74828125 -0.14648438 5.0390625 C-0.1114837 3.35902999 -0.05768954 1.6794065 0 0 Z " fill="#41D034" transform="translate(0,87)"/>
<path d="M0 0 C-0.020625 0.928125 -0.04125 1.85625 -0.0625 2.8125 C-0.15769604 6.02286011 -0.15769604 6.02286011 1 9 C-1 9 -1 9 -3.125 7.125 C-5 5 -5 5 -5 3 C-5.66 3 -6.32 3 -7 3 C-5.26536375 -0.4692725 -3.90371498 0 0 0 Z " fill="#B85460" transform="translate(69,59)"/>
<path d="M0 0 C0.33 0.66 0.66 1.32 1 2 C3.01669827 3.13350534 3.01669827 3.13350534 5 4 C4.67 5.65 4.34 7.3 4 9 C3.01 8.67 2.02 8.34 1 8 C0.67 7.34 0.34 6.68 0 6 C-0.99 5.34 -1.98 4.68 -3 4 C-2.01 2.68 -1.02 1.36 0 0 Z " fill="#D1453E" transform="translate(83,105)"/>
<path d="M0 0 C0.66 0 1.32 0 2 0 C2.33 1.98 2.66 3.96 3 6 C3.99 5.01 4.98 4.02 6 3 C6.33 3.99 6.66 4.98 7 6 C5.3125 7.5625 5.3125 7.5625 3 9 C0.25 8.6875 0.25 8.6875 -2 8 C-1.34 7.67 -0.68 7.34 0 7 C0 4.69 0 2.38 0 0 Z " fill="#2B548D" transform="translate(58,93)"/>
<path d="M0 0 C2.64752004 2.57784846 4.94432065 4.91648098 7 8 C6.01 8.66 5.02 9.32 4 10 C2.02 7.36 0.04 4.72 -2 2 C-1.34 2 -0.68 2 0 2 C0 1.34 0 0.68 0 0 Z " fill="#44DD33" transform="translate(102,30)"/>
<path d="M0 0 C2.35119399 3.52679099 2.21443452 5.02879485 2.125 9.1875 C2.10695313 10.27417969 2.08890625 11.36085938 2.0703125 12.48046875 C2.03550781 13.72763672 2.03550781 13.72763672 2 15 C1.01 15 0.02 15 -1 15 C-0.67 10.05 -0.34 5.1 0 0 Z " fill="#33E51D" transform="translate(115,88)"/>
<path d="M0 0 C-1.5625 2.0625 -1.5625 2.0625 -4 4 C-7.75 3.75 -7.75 3.75 -11 3 C-11 2.34 -11 1.68 -11 1 C-7.26562152 0.12132271 -3.83225427 -0.08912219 0 0 Z " fill="#E4840E" transform="translate(33,70)"/>
<path d="M0 0 C0.33 0 0.66 0 1 0 C1.38281159 5.23175837 0.21854707 8.37802694 -2 13 C-2.33 13 -2.66 13 -3 13 C-3.27131956 7.66404866 -3.4266889 4.38616179 0 0 Z " fill="#3AE227" transform="translate(10,62)"/>
<path d="M0 0 C0.99 0.33 1.98 0.66 3 1 C3 1.66 3 2.32 3 3 C3.99 3.33 4.98 3.66 6 4 C5.67 5.32 5.34 6.64 5 8 C4.01 8 3.02 8 2 8 C0.23537317 4.91190305 0 3.76687864 0 0 Z " fill="#3BCE29" transform="translate(108,38)"/>
<path d="M0 0 C2.97 0.495 2.97 0.495 6 1 C6.33 2.32 6.66 3.64 7 5 C6.34 4.67 5.68 4.34 5 4 C4.67 4.33 4.34 4.66 4 5 C2.32457024 4.71395102 0.65614657 4.38218767 -1 4 C-0.67 2.68 -0.34 1.36 0 0 Z " fill="#7D1D1F" transform="translate(30,112)"/>
<path d="M0 0 C-1.43011973 0.86646667 -2.86940619 1.71781829 -4.3125 2.5625 C-5.51326172 3.27599609 -5.51326172 3.27599609 -6.73828125 4.00390625 C-9 5 -9 5 -12 4 C-12.33 3.01 -12.66 2.02 -13 1 C-12.278125 1.04125 -11.55625 1.0825 -10.8125 1.125 C-7.9634211 1.15508904 -7.9634211 1.15508904 -5.375 -0.0625 C-3 -1 -3 -1 0 0 Z " fill="#0D2F69" transform="translate(69,100)"/>
<path d="M0 0 C0.99 1.32 1.98 2.64 3 4 C2.01 4.495 2.01 4.495 1 5 C1.33 6.65 1.66 8.3 2 10 C1.34 10 0.68 10 0 10 C0 11.32 0 12.64 0 14 C-0.66 13.67 -1.32 13.34 -2 13 C-1.814375 11.9275 -1.62875 10.855 -1.4375 9.75 C-1.0695432 6.59608454 -0.95534657 4.90181508 -2 2 C-1.34 2 -0.68 2 0 2 C0 1.34 0 0.68 0 0 Z " fill="#134894" transform="translate(86,79)"/>
<path d="M0 0 C0.33 0.99 0.66 1.98 1 3 C0.360625 3.12375 -0.27875 3.2475 -0.9375 3.375 C-1.618125 3.58125 -2.29875 3.7875 -3 4 C-3.33 4.66 -3.66 5.32 -4 6 C-4.103125 5.360625 -4.20625 4.72125 -4.3125 4.0625 C-4.539375 3.381875 -4.76625 2.70125 -5 2 C-5.99 1.67 -6.98 1.34 -8 1 C-5.07175348 0.02391783 -3.04386724 -0.08226668 0 0 Z " fill="#841C1D" transform="translate(83,114)"/>
<path d="M0 0 C1.485 0.99 1.485 0.99 3 2 C4.9896995 2.39013716 6.99019869 2.73202649 9 3 C9 3.66 9 4.32 9 5 C7.02 5 5.04 5 3 5 C2.67 5.66 2.34 6.32 2 7 C0.5393715 4.35261084 0 3.10551666 0 0 Z " fill="#2E4E85" transform="translate(18,94)"/>
<path d="M0 0 C1.32 0 2.64 0 4 0 C4 0.99 4 1.98 4 3 C4.99 2.67 5.98 2.34 7 2 C6.67 2.99 6.34 3.98 6 5 C5.34 5 4.68 5 4 5 C3.34 5.66 2.68 6.32 2 7 C2 6.01 2 5.02 2 4 C1.34 4 0.68 4 0 4 C0 2.68 0 1.36 0 0 Z " fill="#CA5255" transform="translate(49,59)"/>
<path d="M0 0 C2.97 1.98 2.97 1.98 6 4 C5.01 4.99 4.02 5.98 3 7 C1.35 5.35 -0.3 3.7 -2 2 C-1.34 2 -0.68 2 0 2 C0 1.34 0 0.68 0 0 Z " fill="#45D632" transform="translate(15,117)"/>
<path d="M0 0 C0.66 0 1.32 0 2 0 C1.25 4.75 1.25 4.75 -1 7 C-1.99 6.67 -2.98 6.34 -4 6 C-1.125 1.125 -1.125 1.125 0 0 Z " fill="#E28612" transform="translate(30,89)"/>
<path d="M0 0 C1.9375 0.6875 1.9375 0.6875 4 2 C4.75 4.625 4.75 4.625 5 7 C2.525 6.01 2.525 6.01 0 5 C0 3.35 0 1.7 0 0 Z " fill="#DA8418" transform="translate(18,72)"/>
<path d="M0 0 C0.33 0 0.66 0 1 0 C1.22304441 1.74818591 1.4278645 3.49870323 1.625 5.25 C1.74101563 6.22453125 1.85703125 7.1990625 1.9765625 8.203125 C2.00112537 11.13429393 1.5312717 12.54528964 0 15 C-2.72580143 10.45699761 -1.63313152 6.89047526 -0.5078125 2.01171875 C-0.34023437 1.34785156 -0.17265625 0.68398438 0 0 Z " fill="#48D53B" transform="translate(107,55)"/>
<path d="M0 0 C0.33 0.66 0.66 1.32 1 2 C1.66 2 2.32 2 3 2 C5.125 3.875 5.125 3.875 7 6 C7 6.66 7 7.32 7 8 C4.69 7.34 2.38 6.68 0 6 C0 4.02 0 2.04 0 0 Z " fill="#DE4D45" transform="translate(61,60)"/>
<path d="M0 0 C0.99 0.33 1.98 0.66 3 1 C2.67 4.63 2.34 8.26 2 12 C0 10 0 10 -0.1953125 7.6171875 C-0.17210938 6.71226563 -0.14890625 5.80734375 -0.125 4.875 C-0.10695313 3.96492188 -0.08890625 3.05484375 -0.0703125 2.1171875 C-0.04710938 1.41851562 -0.02390625 0.71984375 0 0 Z " fill="#33E71E" transform="translate(105,52)"/>
<path d="M0 0 C1.32 0.33 2.64 0.66 4 1 C4 1.99 4 2.98 4 4 C5.32 4.33 6.64 4.66 8 5 C8 5.33 8 5.66 8 6 C3.50347222 6.36458333 3.50347222 6.36458333 1.1875 4.6875 C0 3 0 3 0 0 Z " fill="#E6840A" transform="translate(88,85)"/>
<path d="M0 0 C0.66 0.33 1.32 0.66 2 1 C1.67 1.66 1.34 2.32 1 3 C1.66 3.33 2.32 3.66 3 4 C2.401875 4.268125 1.80375 4.53625 1.1875 4.8125 C-0.97224808 5.98493467 -2.35790256 7.19369282 -4 9 C-3.38461538 3.46153846 -3.38461538 3.46153846 -1.4375 1.125 C-0.963125 0.75375 -0.48875 0.3825 0 0 Z " fill="#AC5766" transform="translate(49,66)"/>
<path d="M0 0 C1.9375 0.75 1.9375 0.75 4 2 C4.75 4.125 4.75 4.125 5 6 C4.01 6.33 3.02 6.66 2 7 C0 4 0 4 0 0 Z " fill="#D28320" transform="translate(19,65)"/>
<path d="M0 0 C0.5625 1.9375 0.5625 1.9375 1 4 C0 5 0 5 -2.5625 5.0625 C-3.7690625 5.0315625 -3.7690625 5.0315625 -5 5 C-5.33 5.99 -5.66 6.98 -6 8 C-6.99 6.68 -7.98 5.36 -9 4 C-7.88625 3.71125 -6.7725 3.4225 -5.625 3.125 C-1.99708908 2.30758671 -1.99708908 2.30758671 0 0 Z " fill="#896C4F" transform="translate(87,56)"/>
<path d="M0 0 C1.98 0 3.96 0 6 0 C6 0.99 6 1.98 6 3 C6.66 3.33 7.32 3.66 8 4 C6.02 4 4.04 4 2 4 C1.34 2.68 0.68 1.36 0 0 Z " fill="#D88219" transform="translate(71,48)"/>
<path d="M0 0 C0.99 0 1.98 0 3 0 C2.67 1.65 2.34 3.3 2 5 C1.01 5.33 0.02 5.66 -1 6 C-1.625 4.125 -1.625 4.125 -2 2 C-1.34 1.34 -0.68 0.68 0 0 Z " fill="#D7831C" transform="translate(98,79)"/>
<path d="M0 0 C0.66 0 1.32 0 2 0 C2.1875 2.875 2.1875 2.875 2 6 C1.01 6.66 0.02 7.32 -1 8 C-1.625 5.125 -1.625 5.125 -2 2 C-1.34 1.34 -0.68 0.68 0 0 Z " fill="#D5851E" transform="translate(94,59)"/>
<path d="M0 0 C0.99 0.33 1.98 0.66 3 1 C2.25 6.75 2.25 6.75 0 9 C-1.125 3.375 -1.125 3.375 0 0 Z " fill="#6D6C8E" transform="translate(58,53)"/>
<path d="M0 0 C0.33 0 0.66 0 1 0 C1 1.65 1 3.3 1 5 C1.99 4.67 2.98 4.34 4 4 C4 5.65 4 7.3 4 9 C2.35 8.67 0.7 8.34 -1 8 C-0.67 5.36 -0.34 2.72 0 0 Z " fill="#D82A27" transform="translate(93,115)"/>
<path d="M0 0 C1.98 0 3.96 0 6 0 C6 1.32 6 2.64 6 4 C3.69 3.67 1.38 3.34 -1 3 C-0.67 2.01 -0.34 1.02 0 0 Z " fill="#DD8415" transform="translate(74,54)"/>
<path d="M0 0 C0.33 0.66 0.66 1.32 1 2 C0.38125 2.7425 -0.2375 3.485 -0.875 4.25 C-2.60437281 6.48801188 -3.86106661 8.43739987 -5 11 C-5.66 10.01 -6.32 9.02 -7 8 C-4.69 5.36 -2.38 2.72 0 0 Z " fill="#12479C" transform="translate(17,35)"/>
<path d="M0 0 C1.98 0 3.96 0 6 0 C5.67 1.32 5.34 2.64 5 4 C3.68 4.33 2.36 4.66 1 5 C0.67 3.35 0.34 1.7 0 0 Z " fill="#AD2727" transform="translate(37,114)"/>
<path d="M0 0 C0.66 0 1.32 0 2 0 C3.6875 2.375 3.6875 2.375 5 5 C4.67 5.66 4.34 6.32 4 7 C1.525 6.01 1.525 6.01 -1 5 C-0.67 3.35 -0.34 1.7 0 0 Z " fill="#475898" transform="translate(62,78)"/>
<path d="M0 0 C0.66 0.33 1.32 0.66 2 1 C2 1.99 2 2.98 2 4 C0.35 4.66 -1.3 5.32 -3 6 C-2.42655063 3.13275314 -2.1385485 2.1385485 0 0 Z " fill="#47D430" transform="translate(100,118)"/>
<path d="M0 0 C2.72869407 0.03287583 5.2966618 0.56397771 8 1 C7.67 1.99 7.34 2.98 7 4 C2.545 3.01 2.545 3.01 -2 2 C-1.34 1.34 -0.68 0.68 0 0 Z " fill="#675D56" transform="translate(19,84)"/>
<path d="M0 0 C1.3921875 0.3403125 1.3921875 0.3403125 2.8125 0.6875 C2.4825 1.3475 2.1525 2.0075 1.8125 2.6875 C-0.8275 2.6875 -3.4675 2.6875 -6.1875 2.6875 C-4.14987265 -0.14253799 -3.59070275 -0.35202968 0 0 Z " fill="#E3860F" transform="translate(32.1875,65.3125)"/>
<path d="M0 0 C0.66 0.33 1.32 0.66 2 1 C2 2.98 2 4.96 2 7 C1.01 7 0.02 7 -1 7 C-1.04254356 5.00045254 -1.04080783 2.99958364 -1 1 C-0.67 0.67 -0.34 0.34 0 0 Z " fill="#DC8418" transform="translate(90,53)"/>
<path d="M0 0 C2 2 2 2 2 5 C-1.3 5 -4.6 5 -8 5 C-8 4.67 -8 4.34 -8 4 C-5.69 4 -3.38 4 -1 4 C-0.67 2.68 -0.34 1.36 0 0 Z " fill="#CD4042" transform="translate(97,124)"/>
<path d="M0 0 C1.9375 0.3125 1.9375 0.3125 4 1 C4.33 1.99 4.66 2.98 5 4 C4 5 4 5 1.4375 5.0625 C0.2309375 5.0315625 0.2309375 5.0315625 -1 5 C-0.67 3.35 -0.34 1.7 0 0 Z " fill="#982424" transform="translate(72,116)"/>
<path d="M0 0 C1.98 0 3.96 0 6 0 C6 0.99 6 1.98 6 3 C4.02 3 2.04 3 0 3 C0 2.01 0 1.02 0 0 Z " fill="#E5E7E4" transform="translate(56,85)"/>
<path d="M0 0 C-4.38095238 2.06878307 -4.38095238 2.06878307 -7.25 1.75 C-9 1 -9 1 -10 -1 C-3.375 -2.25 -3.375 -2.25 0 0 Z " fill="#5F5957" transform="translate(101,86)"/>
<path d="M0 0 C2.64 0 5.28 0 8 0 C7.67 0.66 7.34 1.32 7 2 C4.35139573 2.59355614 1.70802678 2.74209269 -1 3 C-0.67 2.01 -0.34 1.02 0 0 Z " fill="#9A6C39" transform="translate(25,68)"/>
<path d="M0 0 C0.99 0.33 1.98 0.66 3 1 C3 2.98 3 4.96 3 7 C2.34 7 1.68 7 1 7 C0.67 4.69 0.34 2.38 0 0 Z " fill="#E38510" transform="translate(79,45)"/>
<path d="M0 0 C0.33 0 0.66 0 1 0 C1 1.65 1 3.3 1 5 C-0.32 5.33 -1.64 5.66 -3 6 C-2.42655063 3.13275314 -2.1385485 2.1385485 0 0 Z " fill="#3CE22C" transform="translate(63,137)"/>
<path d="M0 0 C-0.99 0 -1.98 0 -3 0 C-3 0.99 -3 1.98 -3 3 C-4.65 3 -6.3 3 -8 3 C-7.67 2.01 -7.34 1.02 -7 0 C-3.86650268 -1.04449911 -3.01031744 -0.93423645 0 0 Z " fill="#253E8F" transform="translate(78,125)"/>
<path d="M0 0 C0.99 0 1.98 0 3 0 C2 2 2 2 0 3 C-1.13350534 5.01669827 -1.13350534 5.01669827 -2 7 C-2.66 7 -3.32 7 -4 7 C-2.92598892 4.08482708 -2.22189824 2.22189824 0 0 Z " fill="#926F47" transform="translate(31,93)"/>
<path d="M0 0 C1.98 0.99 1.98 0.99 4 2 C3.67 2.66 3.34 3.32 3 4 C2.34 4 1.68 4 1 4 C1 5.65 1 7.3 1 9 C0.67 9 0.34 9 0 9 C0 6.03 0 3.06 0 0 Z " fill="#25509F" transform="translate(67,70)"/>
<path d="M0 0 C1.65 0 3.3 0 5 0 C5.33 0.99 5.66 1.98 6 3 C4.02 3 2.04 3 0 3 C0 2.01 0 1.02 0 0 Z " fill="#E68509" transform="translate(82,61)"/>
<path d="M0 0 C2.97 0.495 2.97 0.495 6 1 C6 1.99 6 2.98 6 4 C4.35 3.67 2.7 3.34 1 3 C0.67 2.01 0.34 1.02 0 0 Z " fill="#E88408" transform="translate(32,56)"/>
<path d="M0 0 C1.32 1.32 2.64 2.64 4 4 C2.68 4.99 1.36 5.98 0 7 C0 6.34 0 5.68 0 5 C-1.32 4.67 -2.64 4.34 -4 4 C-2.68 3.67 -1.36 3.34 0 3 C0 2.01 0 1.02 0 0 Z " fill="#2F547C" transform="translate(47,43)"/>
<path d="M0 0 C2.5 1.3125 2.5 1.3125 5 3 C5 3.99 5 4.98 5 6 C3.0625 5.25 3.0625 5.25 1 4 C0.25 1.875 0.25 1.875 0 0 Z " fill="#35E31F" transform="translate(97,26)"/>
</svg>
